<?xml version='1.0' encoding='utf-8'?>
<svg xmlns="http://www.w3.org/2000/svg" version="1.1" width="1079.6" height="1081.6" style="shape-rendering:geometricPrecision; text-rendering:geometricPrecision; image-rendering:optimizeQuality; fill-rule:evenodd; clip-rule:evenodd" viewBox="460.2 21.2 1079.6 1081.6">
<g><path style="opacity:0.997" fill="#ea0b2a" d="M 985.5,42.5 C 1053.78,41.8986 1121.44,54.0652 1188.5,79C 1319.96,132.791 1415.12,224.291 1474,353.5C 1529.81,484.289 1532.81,616.289 1483,749.5C 1431.83,876.335 1345,970.169 1222.5,1031C 1078.37,1096.53 933.032,1098.2 786.5,1036C 640.362,966.515 544.528,854.015 499,698.5C 467.915,577.433 477.581,459.767 528,345.5C 582.413,231.754 666.247,147.254 779.5,92C 846.283,61.3573 914.783,45.524 985,44.5C 985.464,43.9056 985.631,43.2389 985.5,42.5 Z" /></g>
<g><path style="opacity:1" fill="#f7f3ed" d="M 832.5,178.5 C 832.5,179.833 832.5,181.167 832.5,182.5C 830.336,185.476 828.836,188.809 828,192.5C 826.963,199.402 827.463,206.068 829.5,212.5C 830.053,214.552 831.053,214.885 832.5,213.5C 864.558,197.562 897.225,196.395 930.5,210C 945.799,217.356 959.299,226.856 971,238.5C 972.953,241.255 974.12,244.255 974.5,247.5C 972.833,247.5 971.167,247.5 969.5,247.5C 965.777,246.003 961.777,245.337 957.5,245.5C 953.531,245.294 949.865,245.961 946.5,247.5C 930.562,250.298 917.562,257.965 907.5,270.5C 906.711,270.783 906.044,271.283 905.5,272C 913.827,272.5 922.16,272.666 930.5,272.5C 932.764,273.219 935.097,273.552 937.5,273.5C 938.99,275.28 940.99,275.946 943.5,275.5C 962.914,282.015 979.581,292.348 993.5,306.5C 993.427,308.027 994.094,309.027 995.5,309.5C 995.833,310.5 996.5,311.167 997.5,311.5C 997.833,312.833 998.167,314.167 998.5,315.5C 997.883,315.611 997.383,315.944 997,316.5C 992.487,314.001 987.654,312.167 982.5,311C 956.929,306.486 932.596,309.986 909.5,321.5C 910.37,323.626 911.37,325.626 912.5,327.5C 912.427,329.027 913.094,330.027 914.5,330.5C 924.686,350.335 926.519,370.668 920,391.5C 912.726,407.703 906.893,424.37 902.5,441.5C 900.837,443.438 900.171,445.772 900.5,448.5C 900.5,448.833 900.5,449.167 900.5,449.5C 899.113,451.877 898.279,454.543 898,457.5C 897.243,463.144 896.743,468.811 896.5,474.5C 896.379,479.093 897.046,483.426 898.5,487.5C 898.264,490.609 898.597,493.609 899.5,496.5C 899.171,499.228 899.837,501.562 901.5,503.5C 910.868,537.535 932.535,559.201 966.5,568.5C 968.78,570.223 971.447,570.889 974.5,570.5C 976.379,571.341 978.379,571.675 980.5,571.5C 985.226,573.149 990.226,574.149 995.5,574.5C 996.726,574.48 997.726,574.147 998.5,573.5C 1004.17,574.833 1009.83,574.833 1015.5,573.5C 1019.89,574.59 1024.23,574.256 1028.5,572.5C 1034.66,572.267 1040.66,571.267 1046.5,569.5C 1049.23,569.829 1051.56,569.163 1053.5,567.5C 1060.72,566.037 1067.72,563.87 1074.5,561C 1082.43,556.882 1090.43,553.049 1098.5,549.5C 1105.21,544.627 1112.21,539.961 1119.5,535.5C 1133.1,525.523 1145.94,514.19 1158,501.5C 1163.35,494.164 1169.01,487.164 1175,480.5C 1183.86,466.785 1192.03,452.618 1199.5,438C 1200.64,437.251 1201.64,437.417 1202.5,438.5C 1206.87,452.831 1208.87,467.497 1208.5,482.5C 1207.03,486.919 1206.36,491.586 1206.5,496.5C 1203.46,512.574 1197.63,527.574 1189,541.5C 1188.22,542.944 1188.39,544.277 1189.5,545.5C 1190.17,545.167 1190.83,544.833 1191.5,544.5C 1205.35,534.614 1218.69,524.114 1231.5,513C 1238.61,506.222 1245.78,499.389 1253,492.5C 1253.33,491.5 1253.67,490.5 1254,489.5C 1273.34,470.494 1288,448.16 1298,422.5C 1300.22,415.072 1302.05,407.572 1303.5,400C 1305.39,399.691 1306.72,400.525 1307.5,402.5C 1311.2,408.584 1314.87,414.584 1318.5,420.5C 1318.43,422.027 1319.09,423.027 1320.5,423.5C 1326.01,434.853 1330.68,446.519 1334.5,458.5C 1334.11,461.553 1334.78,464.22 1336.5,466.5C 1336.5,466.833 1336.5,467.167 1336.5,467.5C 1336.12,471.489 1336.78,475.155 1338.5,478.5C 1339.59,490.176 1339.59,501.842 1338.5,513.5C 1336.3,519.167 1334.96,525.167 1334.5,531.5C 1328.24,550.346 1319.58,568.013 1308.5,584.5C 1308.83,585.5 1309.5,586.167 1310.5,586.5C 1317.59,581.489 1325.26,577.823 1333.5,575.5C 1337.81,574.673 1342.14,574.007 1346.5,573.5C 1347.08,575.076 1347.41,576.742 1347.5,578.5C 1345.83,594.552 1343.83,610.552 1341.5,626.5C 1339.44,630.802 1338.44,635.469 1338.5,640.5C 1338.5,640.833 1338.5,641.167 1338.5,641.5C 1336.78,643.78 1336.11,646.447 1336.5,649.5C 1336.5,649.833 1336.5,650.167 1336.5,650.5C 1334.84,652.438 1334.17,654.772 1334.5,657.5C 1325.66,692.185 1310.16,723.518 1288,751.5C 1263.75,776.794 1235.42,796.127 1203,809.5C 1202.84,811.387 1203.67,812.887 1205.5,814C 1211.51,816.168 1217.51,818.334 1223.5,820.5C 1226.17,822.5 1226.17,824.5 1223.5,826.5C 1218.29,828.96 1212.95,831.127 1207.5,833C 1180.01,838.623 1153.01,845.956 1126.5,855C 1075.99,875.503 1038.16,910.003 1013,958.5C 1008.42,967.167 1004.25,976.001 1000.5,985C 999.551,985.617 998.718,985.451 998,984.5C 989.342,963.518 978.342,943.851 965,925.5C 960.356,921.186 956.022,916.52 952,911.5C 951.667,910.5 951.333,909.5 951,908.5C 942.434,899.081 933.267,890.748 923.5,883.5C 923.027,882.094 922.027,881.427 920.5,881.5C 920.5,880.833 920.167,880.5 919.5,880.5C 919.027,879.094 918.027,878.427 916.5,878.5C 915.564,877.026 914.23,876.026 912.5,875.5C 912.027,874.094 911.027,873.427 909.5,873.5C 909.027,872.094 908.027,871.427 906.5,871.5C 900.26,867.673 893.926,864.006 887.5,860.5C 887.027,859.094 886.027,858.427 884.5,858.5C 880.5,856.5 876.5,854.5 872.5,852.5C 872.027,851.094 871.027,850.427 869.5,850.5C 852.477,841.322 835.143,832.655 817.5,824.5C 817.027,823.094 816.027,822.427 814.5,822.5C 806.142,818.124 797.809,813.791 789.5,809.5C 789.027,808.094 788.027,807.427 786.5,807.5C 784.847,807.34 783.514,806.674 782.5,805.5C 782.027,804.094 781.027,803.427 779.5,803.5C 778.508,803.672 777.842,803.338 777.5,802.5C 777.027,801.094 776.027,800.427 774.5,800.5C 773.508,800.672 772.842,800.338 772.5,799.5C 772.027,798.094 771.027,797.427 769.5,797.5C 768.508,797.672 767.842,797.338 767.5,796.5C 767.027,795.094 766.027,794.427 764.5,794.5C 764.027,793.094 763.027,792.427 761.5,792.5C 761.027,791.094 760.027,790.427 758.5,790.5C 756.147,789.66 754.147,788.326 752.5,786.5C 752.027,785.094 751.027,784.427 749.5,784.5C 749.027,783.094 748.027,782.427 746.5,782.5C 746.5,781.833 746.167,781.5 745.5,781.5C 745.027,780.094 744.027,779.427 742.5,779.5C 696.238,745.948 670.571,699.948 665.5,641.5C 666.011,632.842 666.344,624.175 666.5,615.5C 668.638,606.609 670.305,597.609 671.5,588.5C 665.03,589.735 659.363,592.568 654.5,597C 653.216,597.684 652.049,597.517 651,596.5C 650.554,585.955 651.887,575.622 655,565.5C 663.496,543.445 676.163,524.445 693,508.5C 693.667,507.167 694.333,505.833 695,504.5C 700.363,500.302 705.196,495.636 709.5,490.5C 717.5,483.167 725.167,475.5 732.5,467.5C 746.274,452.897 760.107,438.563 774,424.5C 777.383,419.512 780.883,414.512 784.5,409.5C 787.121,404.593 789.455,399.593 791.5,394.5C 794.167,389.167 794.167,383.833 791.5,378.5C 791.598,376.447 790.931,374.78 789.5,373.5C 789.715,371.821 789.048,370.821 787.5,370.5C 787.631,369.761 787.464,369.094 787,368.5C 783.491,365.443 779.991,362.443 776.5,359.5C 762.228,352.85 747.895,346.35 733.5,340C 729.384,338.601 728.551,336.101 731,332.5C 734.641,328.395 738.808,324.895 743.5,322C 749.796,319.513 756.129,317.346 762.5,315.5C 767.049,315.376 771.382,314.709 775.5,313.5C 781.176,313.666 786.843,313.499 792.5,313C 792.957,312.586 793.291,312.086 793.5,311.5C 784.607,296.45 777.274,280.783 771.5,264.5C 770.161,256.468 768.828,248.468 767.5,240.5C 768.369,233.663 769.036,226.663 769.5,219.5C 774.911,200.516 786.911,188.183 805.5,182.5C 808.228,182.829 810.562,182.163 812.5,180.5C 814.621,180.675 816.621,180.341 818.5,179.5C 823.203,179.563 827.87,179.229 832.5,178.5 Z" /></g>
</svg>
