<?xml version='1.0' encoding='utf-8'?>
<svg xmlns="http://www.w3.org/2000/svg" version="1.1" width="981.93378" height="966.43872" style="clip-rule:evenodd;fill-rule:evenodd;image-rendering:optimizeQuality;shape-rendering:geometricPrecision;text-rendering:geometricPrecision" viewBox="0 0 981.93378 966.43872" id="svg562">
  <defs id="defs566" />
  <g id="g4" transform="translate(-83.464394,-36.5)">
    <path style="opacity:1" fill="#485473" d="m 605.5,46.5 c -1.423,-2.0449 -3.423,-3.0449 -6,-3 0.271,1.8797 -0.396,3.213 -2,4 0.935,-3.8056 2.269,-7.4723 4,-11 1.895,3.1207 3.228,6.454 4,10 z" id="path2" />
  </g>
  <g id="g8" transform="translate(-83.464394,-36.5)">
    <path style="opacity:1" fill="#11264e" d="m 605.5,46.5 c 0.333,1.3333 0.667,2.6667 1,4 0.361,4.4155 1.694,8.4155 4,12 1.23,1.7972 1.896,3.7972 2,6 1.027,6.4148 3.027,12.4148 6,18 0.61,0.891 0.943,1.891 1,3 1.224,6.6673 3.224,13.001 6,19 1.52,2.39 2.52,5.057 3,8 0.177,4.208 1.51,7.874 4,11 2.728,7.184 5.061,14.518 7,22 -0.09,2.652 0.576,4.985 2,7 2.101,3.297 3.435,6.963 4,11 0.147,2.943 0.813,5.776 2,8.5 -0.019,3.485 -0.186,6.985 -0.5,10.5 0.667,-2.667 1.333,-2.667 2,0 0.333,-1 0.667,-2 1,-3 0.2,1.82 1.034,3.153 2.5,4 1.066,2.201 1.733,4.535 2,7 0.236,3.414 0.902,6.747 2,10 0.683,0.363 1.35,0.696 2,1 6.735,19.205 13.068,38.538 19,58 -0.155,3.216 0.845,5.883 3,8 5.863,16.921 11.529,33.921 17,51 -0.172,0.992 0.162,1.658 1,2 102.569,0.669 205.236,1.336 308,2 -4.67,3.667 -9.333,7.333 -14,11 -56.967,39.644 -113.634,79.644 -170,120 -20.942,14.48 -41.942,28.98 -63,43.5 -1.304,0.804 -1.971,1.971 -2,3.5 0.673,2.351 1.34,4.684 2,7 -0.241,2.398 0.426,4.398 2,6 6.371,18.114 12.371,36.447 18,55 0.89,5.666 2.557,11 5,16 1.932,3.695 3.265,7.695 4,12 -0.241,2.398 0.426,4.398 2,6 7.572,20.715 14.572,41.715 21,63 -0.09,2.652 0.576,4.985 2,7 3.239,7.716 5.905,15.716 8,24 0.383,3.819 1.383,7.486 3,11 -1.624,1.369 -2.124,3.036 -1.5,5 0.915,-0.828 1.581,-1.828 2,-3 -0.483,4.049 1.017,7.382 4.5,10 0,0.333 0,0.667 0,1 0.177,4.208 1.51,7.874 4,11 0,0.333 0,0.667 0,1 -0.164,2.687 0.003,5.354 0.5,8 0.333,-0.333 0.667,-0.667 1,-1 0.374,1.991 1.207,3.658 2.5,5 3.756,10.768 7.423,21.601 11,32.5 -0.35,1.257 -1.017,1.591 -2,1 -6.848,-4.697 -13.515,-9.53 -20,-14.5 -0.762,-1.762 -2.096,-2.762 -4,-3 -2.277,-0.949 -4.277,-2.282 -6,-4 -0.473,-1.406 -1.473,-2.073 -3,-2 -7.879,-5.099 -15.545,-10.433 -23,-16 -0.473,-1.406 -1.473,-2.073 -3,-2 -3.209,-1.765 -6.209,-3.765 -9,-6 -0.762,-1.762 -2.096,-2.762 -4,-3 -4.614,-2.617 -8.947,-5.617 -13,-9 -0.473,-1.406 -1.473,-2.073 -3,-2 -3.721,-1.854 -7.054,-4.187 -10,-7 -0.473,-1.406 -1.473,-2.073 -3,-2 -0.473,-1.406 -1.473,-2.073 -3,-2 -4.632,-2.643 -8.965,-5.643 -13,-9 -0.473,-1.406 -1.473,-2.073 -3,-2 -3.721,-1.854 -7.054,-4.187 -10,-7 -0.473,-1.406 -1.473,-2.073 -3,-2 -5.718,-3.186 -11.052,-6.852 -16,-11 -0.473,-1.406 -1.473,-2.073 -3,-2 -14.964,-9.642 -29.63,-19.642 -44,-30 -0.333,-1 -1,-1.667 -2,-2 -9.886,-5.558 -19.219,-11.892 -28,-19 -0.473,-1.406 -1.473,-2.073 -3,-2 -5.325,-3.483 -10.658,-6.65 -16,-9.5 -54.362,37.843 -108.696,75.676 -163,113.5 -1.083,-0.039 -2.083,-0.373 -3,-1 -1.196,0.346 -1.196,0.846 0,1.5 -2.209,1.691 -4.042,1.524 -5.5,-0.5 -1.113,1.26 -1.28,2.427 -0.5,3.5 -1.431,0.465 -2.597,1.299 -3.5,2.5 -0.333,-0.333 -0.667,-0.667 -1,-1 -2.167,1.5 -4,3.333 -5.5,5.5 0.752,0.671 1.086,1.504 1,2.5 -17.385,12.716 -35.052,25.049 -53,37 -1.522,-0.29 -3.022,-0.29 -4.5,0 -0.783,-1.933 -0.283,-3.433 1.5,-4.5 -1.124,-0.249 -2.124,-0.749 -3,-1.5 0.809,-1.571 1.143,-3.238 1,-5 2.761,-10.284 6.095,-20.284 10,-30 1.572,-2.715 2.572,-5.715 3,-9 1.052,0.149 2.052,-0.017 3,-0.5 -1.473,-0.71 -2.14,-1.876 -2,-3.5 1.428,-6.284 3.428,-12.284 6,-18 1.424,-2.015 2.09,-4.348 2,-7 7.633,-24.565 15.633,-48.898 24,-73 1.424,-2.015 2.09,-4.348 2,-7 3.47,-11.743 7.137,-23.409 11,-35 2.155,-2.117 3.155,-4.784 3,-8 0,-0.333 0,-0.667 0,-1 2.155,-2.117 3.155,-4.784 3,-8 1.095,-5.284 2.761,-10.284 5,-15 1.424,-2.015 2.09,-4.348 2,-7 1.428,-6.284 3.428,-12.284 6,-18 2.7,-3.442 4.034,-7.442 4,-12 1.424,-2.015 2.09,-4.348 2,-7 -0.17,-1.322 0.163,-2.489 1,-3.5 -12.85,-9.363 -25.517,-18.863 -38,-28.5 -0.473,-1.406 -1.473,-2.073 -3,-2 -1.372,-1.012 -2.705,-2.012 -4,-3 -0.473,-1.406 -1.473,-2.073 -3,-2 -6.549,-4.434 -12.883,-9.101 -19,-14 -0.473,-1.406 -1.473,-2.073 -3,-2 -2.635,-1.311 -4.969,-2.978 -7,-5 -0.762,-1.762 -2.096,-2.762 -4,-3 -7.637,-4.978 -14.97,-10.312 -22,-16 -0.473,-1.406 -1.473,-2.073 -3,-2 -6.549,-4.434 -12.883,-9.101 -19,-14 -0.473,-1.406 -1.473,-2.073 -3,-2 -11.215,-7.767 -22.215,-15.767 -33,-24 -0.473,-1.406 -1.473,-2.073 -3,-2 -8.548,-5.767 -16.881,-11.767 -25,-18 -0.762,-1.762 -2.096,-2.762 -4,-3 -1.73,-0.526 -3.064,-1.526 -4,-3 -0.473,-1.406 -1.473,-2.073 -3,-2 -6.549,-4.434 -12.883,-9.101 -19,-14 -0.473,-1.406 -1.473,-2.073 -3,-2 -2.973,-1.647 -5.64,-3.647 -8,-6 -1.453,-1.325 -1.119,-2.158 1,-2.5 -4.246,-3.885 -8.912,-7.052 -14,-9.5 92.333,0 184.667,0 277,0 8.36,0.331 16.693,-0.002 25,-1 10.626,-32.88 21.626,-65.546 33,-98 2.11,-4.002 3.443,-8.335 4,-13 1.335,-4.337 2.668,-8.671 4,-13 2.155,-2.117 3.155,-4.784 3,-8 2.935,-10.472 6.269,-20.805 10,-31 2.818,-3.009 4.151,-6.675 4,-11 0.557,-4.665 1.89,-8.998 4,-13 2.101,-3.297 3.435,-6.963 4,-11 1.052,0.149 2.052,-0.017 3,-0.5 -1.473,-0.71 -2.14,-1.876 -2,-3.5 4.633,-15.564 9.633,-30.8971 15,-46 2.64,-4.585 4.306,-9.585 5,-15 0.722,-0.4175 1.222,-1.0842 1.5,-2 0.718,0.9506 1.551,1.1172 2.5,0.5 -2.198,-1.8783 -2.364,-4.0449 -0.5,-6.5 0.535,1.7705 1.369,2.1039 2.5,1 -1.45,-1.3498 -2.117,-3.0165 -2,-5 0,-0.3333 0,-0.6667 0,-1 1.604,-0.787 2.271,-2.1203 2,-4 2.577,-0.0449 4.577,0.9551 6,3 z" id="path6" />
  </g>
  <g id="g12" transform="translate(-83.464394,-36.5)">
    <path style="opacity:0.827" fill="#7b869c" d="m 606.5,50.5 c 1.905,3.7157 3.239,7.7157 4,12 -2.306,-3.5845 -3.639,-7.5845 -4,-12 z" id="path10" />
  </g>
  <g id="g16" transform="translate(-83.464394,-36.5)">
    <path style="opacity:1" fill="#465274" d="m 597.5,48.5 c -0.117,1.9835 0.55,3.6502 2,5 -1.131,1.1039 -1.965,0.7705 -2.5,-1 -1.864,2.4551 -1.698,4.6217 0.5,6.5 -0.949,0.6172 -1.782,0.4506 -2.5,-0.5 -0.278,0.9158 -0.778,1.5825 -1.5,2 0.761,-4.2843 2.095,-8.2843 4,-12 z" id="path14" />
  </g>
  <g id="g20" transform="translate(-83.464394,-36.5)">
    <path style="opacity:0.992" fill="#758197" d="m 593.5,60.5 c -0.694,5.415 -2.36,10.415 -5,15 1.095,-5.2841 2.761,-10.2841 5,-15 z" id="path18" />
  </g>
  <g id="g24" transform="translate(-83.464394,-36.5)">
    <path style="opacity:0.953" fill="#79849a" d="m 612.5,68.5 c 2.572,5.716 4.572,11.716 6,18 -2.973,-5.5852 -4.973,-11.5852 -6,-18 z" id="path22" />
  </g>
  <g id="g28" transform="translate(-83.464394,-36.5)">
    <path style="opacity:0.953" fill="#778298" d="m 619.5,89.5 c 2.776,5.9993 4.776,12.333 6,19 -2.776,-5.999 -4.776,-12.3327 -6,-19 z" id="path26" />
  </g>
  <g id="g32" transform="translate(-83.464394,-36.5)">
    <path style="opacity:1" fill="#f9f9fa" d="m 679.5,341.5 c -0.237,1.291 0.096,2.291 1,3 84.498,0.999 169.165,1.333 254,1 0,1 0,2 0,3 -68.339,48.674 -136.672,97.341 -205,146 25.678,76.362 50.678,152.696 75,229 -66.667,-46.333 -133.333,-92.667 -200,-139 -68.189,45.926 -135.855,92.593 -203,140 -0.333,-0.333 -0.667,-0.667 -1,-1 25.297,-76.224 49.797,-152.558 73.5,-229 -67.325,-49.165 -134.492,-98.498 -201.5,-148 83,-0.667 166,-1.333 249,-2 26.541,-78.455 53.041,-157.122 79.5,-236 16.798,50.246 34.131,100.246 52,150 8.759,27.775 17.593,55.441 26.5,83 z" id="path30" />
  </g>
  <g id="g36" transform="translate(-83.464394,-36.5)">
    <path style="opacity:0.953" fill="#7b869b" d="m 628.5,116.5 c 1.704,3.439 3.038,7.105 4,11 -2.49,-3.126 -3.823,-6.792 -4,-11 z" id="path34" />
  </g>
  <g id="g40" transform="translate(-83.464394,-36.5)">
    <path style="opacity:1" fill="#65708b" d="m 573.5,121.5 c -0.14,1.624 0.527,2.79 2,3.5 -0.948,0.483 -1.948,0.649 -3,0.5 -0.565,4.037 -1.899,7.703 -4,11 1.095,-5.284 2.761,-10.284 5,-15 z" id="path38" />
  </g>
  <g id="g44" transform="translate(-83.464394,-36.5)">
    <path style="opacity:0.953" fill="#737f95" d="m 639.5,149.5 c 1.424,2.015 2.09,4.348 2,7 -1.424,-2.015 -2.09,-4.348 -2,-7 z" id="path42" />
  </g>
  <g id="g48" transform="translate(-83.464394,-36.5)">
    <path style="opacity:1" fill="#4d5876" d="m 564.5,149.5 c 0.151,4.325 -1.182,7.991 -4,11 0.959,-3.883 2.292,-7.55 4,-11 z" id="path46" />
  </g>
  <g id="g52" transform="translate(-83.464394,-36.5)">
    <path style="opacity:1" fill="#0d244d" d="m 666.5,360.5 c 74.333,0.667 148.667,1.333 223,2 -59.703,40.61 -119.203,81.61 -178.5,123 20.413,65.24 41.246,130.407 62.5,195.5 -0.667,0.667 -1.333,0.667 -2,0 C 716.087,641.212 660.254,602.046 604,563.5 c -57.627,39.457 -115.127,79.123 -172.5,119 -0.333,-0.333 -0.667,-0.667 -1,-1 21.656,-64.634 43.322,-129.3 65,-194 -56.193,-41.693 -112.526,-83.193 -169,-124.5 68.999,-0.5 137.999,-0.667 207,-0.5 19.926,-50.353 37.093,-101.686 51.5,-154 4.893,-16.016 10.559,-31.683 17,-47 23.202,65.816 44.702,132.149 64.5,199 z" id="path50" />
  </g>
  <g id="g56" transform="translate(-83.464394,-36.5)">
    <path style="opacity:1" fill="#3b486a" d="m 645.5,167.5 c 2.704,6.441 5.037,13.108 7,20 -1.466,-0.847 -2.3,-2.18 -2.5,-4 -0.333,1 -0.667,2 -1,3 -0.667,-2.667 -1.333,-2.667 -2,0 0.314,-3.515 0.481,-7.015 0.5,-10.5 -1.187,-2.724 -1.853,-5.557 -2,-8.5 z" id="path54" />
  </g>
  <g id="g60" transform="translate(-83.464394,-36.5)">
    <path style="opacity:0.992" fill="#6d7890" d="m 550.5,191.5 c 0.155,3.216 -0.845,5.883 -3,8 0.629,-2.897 1.629,-5.564 3,-8 z" id="path58" />
  </g>
  <g id="g64" transform="translate(-83.464394,-36.5)">
    <path style="opacity:1" fill="#475271" d="m 654.5,194.5 c 1.704,3.439 3.038,7.105 4,11 -0.65,-0.304 -1.317,-0.637 -2,-1 -1.098,-3.253 -1.764,-6.586 -2,-10 z" id="path62" />
  </g>
  <g id="g68" transform="translate(-83.464394,-36.5)">
    <path style="opacity:0.953" fill="#768197" d="m 543.5,212.5 c -0.557,4.665 -1.89,8.998 -4,13 0.557,-4.665 1.89,-8.998 4,-13 z" id="path66" />
  </g>
  <g id="g72" transform="translate(-83.464394,-36.5)">
    <path style="opacity:0.953" fill="#758096" d="m 677.5,263.5 c 1.371,2.436 2.371,5.103 3,8 -2.155,-2.117 -3.155,-4.784 -3,-8 z" id="path70" />
  </g>
  <g id="g76" transform="translate(-83.464394,-36.5)">
    <path style="opacity:0.271" fill="#b6bece" d="m 481.5,324.5 c -92.333,0 -184.667,0 -277,0 -1.291,-0.237 -2.291,0.096 -3,1 -0.543,-0.06 -0.876,-0.393 -1,-1 93.832,-1.332 187.499,-1.332 281,0 z" id="path74" />
  </g>
  <g id="g80" transform="translate(-83.464394,-36.5)">
    <path style="opacity:0.404" fill="#969fb2" d="m 697.5,322.5 c 104.264,0.831 208.597,1.331 313,1.5 -0.54,0.717 -1.21,1.217 -2,1.5 -103.165,-0.999 -206.499,-1.333 -310,-1 -0.838,-0.342 -1.172,-1.008 -1,-2 z" id="path78" />
  </g>
  <g id="g84" transform="translate(-83.464394,-36.5)">
    <path style="opacity:1" fill="#05163a" d="m 698.5,324.5 c 103.501,-0.333 206.835,10e-4 310,1 -0.34,0.838 -1.01,1.172 -2,1 -102.764,-0.664 -205.431,-1.331 -308,-2 z" id="path82" />
  </g>
  <g id="g88" transform="translate(-83.464394,-36.5)">
    <path style="opacity:1" fill="#303d61" d="m 201.5,325.5 c 0.709,-0.904 1.709,-1.237 3,-1 5.088,2.448 9.754,5.615 14,9.5 -2.119,0.342 -2.453,1.175 -1,2.5 -5.652,-3.163 -10.985,-6.83 -16,-11 z" id="path86" />
  </g>
  <g id="g92" transform="translate(-83.464394,-36.5)">
    <path style="opacity:0.098" fill="#d3dbe5" d="m 992.5,337.5 c 1.333,0.667 1.333,0.667 0,0 z" id="path90" />
  </g>
  <g id="g96" transform="translate(-83.464394,-36.5)">
    <path style="opacity:0.631" fill="#7a869a" d="m 225.5,342.5 c 1.527,-0.073 2.527,0.594 3,2 -1.527,0.073 -2.527,-0.594 -3,-2 z" id="path94" />
  </g>
  <g id="g100" transform="translate(-83.464394,-36.5)">
    <path style="opacity:0.992" fill="#283957" d="m 679.5,341.5 c 86.623,1.661 173.289,2.661 260,3 -86.333,0 -172.667,0 -259,0 -0.904,-0.709 -1.237,-1.709 -1,-3 z" id="path98" />
  </g>
  <g id="g104" transform="translate(-83.464394,-36.5)">
    <path style="opacity:1" fill="#8893a7" d="m 521.5,344.5 c -83,0.667 -166,1.333 -249,2 -0.789,-0.283 -1.456,-0.783 -2,-1.5 83.666,-0.5 167.333,-0.667 251,-0.5 z" id="path102" />
  </g>
  <g id="g108" transform="translate(-83.464394,-36.5)">
    <path style="opacity:1" fill="#e7ecf4" d="m 680.5,344.5 c 86.333,0 172.667,0 259,0 -1.445,1.563 -3.111,2.896 -5,4 0,-1 0,-2 0,-3 -84.835,0.333 -169.502,-10e-4 -254,-1 z" id="path106" />
  </g>
  <g id="g112" transform="translate(-83.464394,-36.5)">
    <path style="opacity:0.518" fill="#8c96aa" d="m 247.5,358.5 c 1.527,-0.073 2.527,0.594 3,2 -1.527,0.073 -2.527,-0.594 -3,-2 z" id="path110" />
  </g>
  <g id="g116" transform="translate(-83.464394,-36.5)">
    <path style="opacity:1" fill="#c0c9d8" d="m 666.5,360.5 c 74.67,-0.333 149.336,0 224,1 -0.124,0.607 -0.457,0.94 -1,1 -74.333,-0.667 -148.667,-1.333 -223,-2 z" id="path114" />
  </g>
  <g id="g120" transform="translate(-83.464394,-36.5)">
    <path style="opacity:0.631" fill="#8b96aa" d="m 254.5,363.5 c 1.904,0.238 3.238,1.238 4,3 -1.904,-0.238 -3.238,-1.238 -4,-3 z" id="path118" />
  </g>
  <g id="g124" transform="translate(-83.464394,-36.5)">
    <path style="opacity:0.631" fill="#7c879c" d="m 283.5,384.5 c 1.527,-0.073 2.527,0.594 3,2 -1.527,0.073 -2.527,-0.594 -3,-2 z" id="path122" />
  </g>
  <g id="g128" transform="translate(-83.464394,-36.5)">
    <path style="opacity:0.631" fill="#7a869a" d="m 319.5,410.5 c 1.527,-0.073 2.527,0.594 3,2 -1.527,0.073 -2.527,-0.594 -3,-2 z" id="path126" />
  </g>
  <g id="g132" transform="translate(-83.464394,-36.5)">
    <path style="opacity:0.827" fill="#7f8a9f" d="m 341.5,426.5 c 1.527,-0.073 2.527,0.594 3,2 -1.527,0.073 -2.527,-0.594 -3,-2 z" id="path130" />
  </g>
  <g id="g136" transform="translate(-83.464394,-36.5)">
    <path style="opacity:0.631" fill="#8690a4" d="m 366.5,444.5 c 1.904,0.238 3.238,1.238 4,3 -1.904,-0.238 -3.238,-1.238 -4,-3 z" id="path134" />
  </g>
  <g id="g140" transform="translate(-83.464394,-36.5)">
    <path style="opacity:0.953" fill="#7c879c" d="m 377.5,452.5 c 1.527,-0.073 2.527,0.594 3,2 -1.527,0.073 -2.527,-0.594 -3,-2 z" id="path138" />
  </g>
  <g id="g144" transform="translate(-83.464394,-36.5)">
    <path style="opacity:0.098" fill="#d3dbe5" d="m 822.5,457.5 c 1.333,0.667 1.333,0.667 0,0 z" id="path142" />
  </g>
  <g id="g148" transform="translate(-83.464394,-36.5)">
    <path style="opacity:0.518" fill="#8c96aa" d="m 399.5,468.5 c 1.527,-0.073 2.527,0.594 3,2 -1.527,0.073 -2.527,-0.594 -3,-2 z" id="path146" />
  </g>
  <g id="g152" transform="translate(-83.464394,-36.5)">
    <path style="opacity:0.631" fill="#7a869a" d="m 406.5,473.5 c 1.527,-0.073 2.527,0.594 3,2 -1.527,0.073 -2.527,-0.594 -3,-2 z" id="path150" />
  </g>
  <g id="g156" transform="translate(-83.464394,-36.5)">
    <path style="opacity:0.953" fill="#707c92" d="m 446.5,507.5 c 0.09,2.652 -0.576,4.985 -2,7 -0.09,-2.652 0.576,-4.985 2,-7 z" id="path154" />
  </g>
  <g id="g160" transform="translate(-83.464394,-36.5)">
    <path style="opacity:0.953" fill="#7e8a9f" d="m 759.5,511.5 c 1.238,1.714 1.905,3.714 2,6 -1.574,-1.602 -2.241,-3.602 -2,-6 z" id="path158" />
  </g>
  <g id="g164" transform="translate(-83.464394,-36.5)">
    <path style="opacity:1" fill="#495574" d="m 444.5,514.5 c 0.034,4.558 -1.3,8.558 -4,12 0.756,-4.267 2.089,-8.267 4,-12 z" id="path162" />
  </g>
  <g id="g168" transform="translate(-83.464394,-36.5)">
    <path style="opacity:0.953" fill="#707c92" d="m 434.5,544.5 c 0.09,2.652 -0.576,4.985 -2,7 -0.09,-2.652 0.576,-4.985 2,-7 z" id="path166" />
  </g>
  <g id="g172" transform="translate(-83.464394,-36.5)">
    <path style="opacity:1" fill="#66708b" d="m 427.5,566.5 c 0.155,3.216 -0.845,5.883 -3,8 0.629,-2.897 1.629,-5.564 3,-8 z" id="path170" />
  </g>
  <g id="g176" transform="translate(-83.464394,-36.5)">
    <path style="opacity:0.992" fill="#707c93" d="m 779.5,572.5 c 2.443,5 4.11,10.334 5,16 -2.443,-5 -4.11,-10.334 -5,-16 z" id="path174" />
  </g>
  <g id="g180" transform="translate(-83.464394,-36.5)">
    <path style="opacity:0.992" fill="#747f96" d="m 424.5,575.5 c 0.155,3.216 -0.845,5.883 -3,8 0.629,-2.897 1.629,-5.564 3,-8 z" id="path178" />
  </g>
  <g id="g184" transform="translate(-83.464394,-36.5)">
    <path style="opacity:0.827" fill="#606b86" d="m 788.5,600.5 c 1.574,1.602 2.241,3.602 2,6 -1.574,-1.602 -2.241,-3.602 -2,-6 z" id="path182" />
  </g>
  <g id="g188" transform="translate(-83.464394,-36.5)">
    <path style="opacity:0.827" fill="#727e94" d="m 410.5,618.5 c 0.09,2.652 -0.576,4.985 -2,7 -0.09,-2.652 0.576,-4.985 2,-7 z" id="path186" />
  </g>
  <g id="g192" transform="translate(-83.464394,-36.5)">
    <path style="opacity:0.631" fill="#7c879c" d="m 617.5,623.5 c 1.527,-0.073 2.527,0.594 3,2 -1.527,0.073 -2.527,-0.594 -3,-2 z" id="path190" />
  </g>
  <g id="g196" transform="translate(-83.464394,-36.5)">
    <path style="opacity:0.098" fill="#b5bdcd" d="m 648.5,644.5 c 1,0.333 1.667,1 2,2 -1.333,0 -2,-0.667 -2,-2 z" id="path194" />
  </g>
  <g id="g200" transform="translate(-83.464394,-36.5)">
    <path style="opacity:0.098" fill="#d3dbe5" d="m 674.5,665.5 c 1.333,0.667 1.333,0.667 0,0 z" id="path198" />
  </g>
  <g id="g204" transform="translate(-83.464394,-36.5)">
    <path style="opacity:0.953" fill="#748096" d="m 811.5,669.5 c 1.424,2.015 2.09,4.348 2,7 -1.424,-2.015 -2.09,-4.348 -2,-7 z" id="path202" />
  </g>
  <g id="g208" transform="translate(-83.464394,-36.5)">
    <path style="opacity:0.631" fill="#7c879c" d="m 694.5,676.5 c 1.527,-0.073 2.527,0.594 3,2 -1.527,0.073 -2.527,-0.594 -3,-2 z" id="path206" />
  </g>
  <g id="g212" transform="translate(-83.464394,-36.5)">
    <path style="opacity:0.631" fill="#7a869a" d="m 713.5,689.5 c 1.527,-0.073 2.527,0.594 3,2 -1.527,0.073 -2.527,-0.594 -3,-2 z" id="path210" />
  </g>
  <g id="g216" transform="translate(-83.464394,-36.5)">
    <path style="opacity:0.631" fill="#7a869a" d="m 726.5,698.5 c 1.527,-0.073 2.527,0.594 3,2 -1.527,0.073 -2.527,-0.594 -3,-2 z" id="path214" />
  </g>
  <g id="g220" transform="translate(-83.464394,-36.5)">
    <path style="opacity:0.827" fill="#768298" d="m 384.5,698.5 c 0.09,2.652 -0.576,4.985 -2,7 -0.09,-2.652 0.576,-4.985 2,-7 z" id="path218" />
  </g>
  <g id="g224" transform="translate(-83.464394,-36.5)">
    <path style="opacity:0.518" fill="#8590a5" d="m 742.5,709.5 c 1.527,-0.073 2.527,0.594 3,2 -1.527,0.073 -2.527,-0.594 -3,-2 z" id="path222" />
  </g>
  <g id="g228" transform="translate(-83.464394,-36.5)">
    <path style="opacity:0.953" fill="#717d93" d="m 745.5,711.5 c 1.527,-0.073 2.527,0.594 3,2 -1.527,0.073 -2.527,-0.594 -3,-2 z" id="path226" />
  </g>
  <g id="g232" transform="translate(-83.464394,-36.5)">
    <path style="opacity:1" fill="#384468" d="m 821.5,700.5 c 3.041,7.453 5.708,15.12 8,23 -3.483,-2.618 -4.983,-5.951 -4.5,-10 -0.419,1.172 -1.085,2.172 -2,3 -0.624,-1.964 -0.124,-3.631 1.5,-5 -1.617,-3.514 -2.617,-7.181 -3,-11 z" id="path230" />
  </g>
  <g id="g236" transform="translate(-83.464394,-36.5)">
    <path style="opacity:0.631" fill="#7a869a" d="m 758.5,720.5 c 1.527,-0.073 2.527,0.594 3,2 -1.527,0.073 -2.527,-0.594 -3,-2 z" id="path234" />
  </g>
  <g id="g240" transform="translate(-83.464394,-36.5)">
    <path style="opacity:1" fill="#5e6984" d="m 376.5,723.5 c -0.14,1.624 0.527,2.79 2,3.5 -0.948,0.483 -1.948,0.649 -3,0.5 -0.428,3.285 -1.428,6.285 -3,9 0.557,-4.665 1.89,-8.998 4,-13 z" id="path238" />
  </g>
  <g id="g244" transform="translate(-83.464394,-36.5)">
    <path style="opacity:0.992" fill="#707b92" d="m 829.5,724.5 c 1.704,3.439 3.038,7.105 4,11 -2.49,-3.126 -3.823,-6.792 -4,-11 z" id="path242" />
  </g>
  <g id="g248" transform="translate(-83.464394,-36.5)">
    <path style="opacity:1" fill="#303d62" d="m 438.5,727.5 c -5.962,4.321 -11.962,8.655 -18,13 0.086,-0.996 -0.248,-1.829 -1,-2.5 1.5,-2.167 3.333,-4 5.5,-5.5 0.333,0.333 0.667,0.667 1,1 0.903,-1.201 2.069,-2.035 3.5,-2.5 -0.78,-1.073 -0.613,-2.24 0.5,-3.5 1.458,2.024 3.291,2.191 5.5,0.5 -1.196,-0.654 -1.196,-1.154 0,-1.5 0.917,0.627 1.917,0.961 3,1 z" id="path246" />
  </g>
  <g id="g252" transform="translate(-83.464394,-36.5)">
    <path style="opacity:0.631" fill="#8a95a8" d="m 774.5,731.5 c 1.904,0.238 3.238,1.238 4,3 -1.904,-0.238 -3.238,-1.238 -4,-3 z" id="path250" />
  </g>
  <g id="g256" transform="translate(-83.464394,-36.5)">
    <path style="opacity:1" fill="#4b5774" d="m 833.5,736.5 c 1.847,3.725 3.181,7.725 4,12 -1.293,-1.342 -2.126,-3.009 -2.5,-5 -0.333,0.333 -0.667,0.667 -1,1 -0.497,-2.646 -0.664,-5.313 -0.5,-8 z" id="path254" />
  </g>
  <g id="g260" transform="translate(-83.464394,-36.5)">
    <path style="opacity:0.631" fill="#7c879c" d="m 787.5,740.5 c 1.527,-0.073 2.527,0.594 3,2 -1.527,0.073 -2.527,-0.594 -3,-2 z" id="path258" />
  </g>
  <g id="g264" transform="translate(-83.464394,-36.5)">
    <path style="opacity:0.518" fill="#8b95a9" d="m 813.5,758.5 c 1.527,-0.073 2.527,0.594 3,2 -1.527,0.073 -2.527,-0.594 -3,-2 z" id="path262" />
  </g>
  <g id="g268" transform="translate(-83.464394,-36.5)">
    <path style="opacity:0.631" fill="#818ca0" d="m 822.5,764.5 c 1.904,0.238 3.238,1.238 4,3 -1.904,-0.238 -3.238,-1.238 -4,-3 z" id="path266" />
  </g>
  <g id="g272" transform="translate(-83.464394,-36.5)">
    <path style="opacity:1" fill="#354164" d="m 362.5,766.5 c 0.143,1.762 -0.191,3.429 -1,5 0.876,0.751 1.876,1.251 3,1.5 -1.783,1.067 -2.283,2.567 -1.5,4.5 1.478,-0.29 2.978,-0.29 4.5,0 -3.342,2.768 -6.842,5.434 -10.5,8 1.134,-6.564 2.967,-12.898 5.5,-19 z" id="path270" />
  </g>
  <g id="g276" transform="translate(-83.464394,-36.5)">
    <path style="opacity:1" fill="#132750" d="m 165.5,913.5 c 0.166,-6.675 0,-13.342 -0.5,-20 -0.417,-1.256 -1.25,-1.923 -2.5,-2 -1.394,-2.208 -3.394,-3.708 -6,-4.5 -7.985,-1.907 -15.985,-1.907 -24,0 -3.5,0.833 -5.667,3 -6.5,6.5 -0.667,16 -0.667,32 0,48 1.167,3.167 3.333,5.333 6.5,6.5 8.333,0.667 16.667,0.667 25,0 2.833,-1.5 5,-3.667 6.5,-6.5 0.5,-6.325 0.666,-12.658 0.5,-19 11.845,-0.328 23.512,0.005 35,1 -0.983,14.588 -1.316,29.255 -1,44 -3.372,14.549 -12.039,24.716 -26,30.5 -27.307,9.39 -52.307,5.39 -75,-12 -7.0025,-6.35 -11.5025,-14.183 -13.5,-23.5 -0.9617,-31.04 -0.6283,-62.04 1,-93 5.9364,-17.439 17.77,-28.439 35.5,-33 3.227,-0.176 6.227,-0.843 9,-2 4.816,-1.15 9.816,-1.316 15,-0.5 7.568,1.6 15.068,3.434 22.5,5.5 2.852,0.157 5.018,-1.01 6.5,-3.5 9.327,-0.5 18.661,-0.666 28,-0.5 0.167,26.002 0,52.002 -0.5,78 -11.574,1.047 -23.407,1.047 -35.5,0 z" id="path274" />
  </g>
  <g id="g280" transform="translate(-83.464394,-36.5)">
    <path style="opacity:1" fill="#10264e" d="m 775.5,838.5 c 0.473,1.406 1.473,2.073 3,2 6.753,2.083 12.086,6.083 16,12 -0.073,1.527 0.594,2.527 2,3 4.937,6.037 7.603,13.037 8,21 0,3 0,6 0,9 0,25.333 0,50.667 0,76 -1.497,13.333 -7.83,23.666 -19,31 -1.699,-0.16 -3.366,0.006 -5,0.5 1.196,0.654 1.196,1.154 0,1.5 -0.692,-0.525 -1.192,-1.192 -1.5,-2 -0.49,1.293 -0.657,2.627 -0.5,4 -2.39,1.52 -5.057,2.52 -8,3 -1.56,-0.019 -3.06,-0.352 -4.5,-1 -2.292,1.431 -4.792,2.26 -7.5,2.5 -7.659,0.5 -15.326,0.67 -23,0.5 -3.958,0.25 -7.624,-0.42 -11,-2 -2.015,-1.424 -4.348,-2.09 -7,-2 -6.977,-2.151 -12.977,-5.818 -18,-11 -0.086,-0.996 0.248,-1.829 1,-2.5 -1.319,-2.285 -2.819,-4.452 -4.5,-6.5 -0.986,0.671 -2.153,0.671 -3.5,0 -3.065,-5.584 -4.898,-11.584 -5.5,-18 -0.667,-26 -0.667,-52 0,-78 4.684,-28.015 21.184,-43.848 49.5,-47.5 13.414,-1.579 26.414,-0.079 39,4.5 z m -12,52 c 0.82,1.64 1.653,3.307 2.5,5 0.5,14.996 0.667,29.996 0.5,45 -1.058,2.897 -3.058,5.064 -6,6.5 -8.975,1.79 -17.975,1.957 -27,0.5 -0.79,-0.901 -1.79,-1.568 -3,-2 -1.57,-2.351 -2.403,-5.018 -2.5,-8 -0.667,-13.667 -0.667,-27.333 0,-41 0.5,-4.5 3,-7 7.5,-7.5 9.466,-1.016 18.799,-0.516 28,1.5 z" id="path278" />
  </g>
  <g id="g284" transform="translate(-83.464394,-36.5)">
    <path style="opacity:0.271" fill="#afb8c9" d="m 882.5,835.5 c -24.667,0 -49.333,0 -74,0 0,16.667 0,33.333 0,50 -0.997,-16.825 -1.33,-33.825 -1,-51 25.172,-0.331 50.172,0.002 75,1 z" id="path282" />
  </g>
  <g id="g288" transform="translate(-83.464394,-36.5)">
    <path style="opacity:0.271" fill="#a8b1c3" d="m 953.5,835.5 c -22,0 -44,0 -66,0 0,16.667 0,33.333 0,50 -0.997,-16.825 -1.33,-33.825 -1,-51 22.506,-0.331 44.84,0.003 67,1 z" id="path286" />
  </g>
  <g id="g292" transform="translate(-83.464394,-36.5)">
    <path style="opacity:1" fill="#11264e" d="m 1014.5,835.5 c 1.3,1.14 2.47,2.473 3.5,4 1.77,0.42 3.6,0.42 5.5,0 3.61,0.576 6.61,-0.424 9,-3 9.58,-0.973 19.25,-1.306 29,-1 0,20.667 0,41.333 0,62 -8.33,0 -16.67,0 -25,0 -7.31,-7.406 -16.14,-12.073 -26.5,-14 -3.91,0.102 -7.24,1.435 -10,4 -0.687,2.42 -0.187,4.587 1.5,6.5 8.63,3.796 17.63,6.463 27,8 30.87,11.579 42.37,33.412 34.5,65.5 -8.56,28.182 -27.06,39.18 -55.5,33 -2.01,-1.424 -4.35,-2.09 -7,-2 -4.36,-2.341 -9.027,-3.675 -14,-4 -1.667,0.167 -3.333,0.333 -5,0.5 -1.233,1.667 -2.567,3.167 -4,4.5 -7.667,0 -15.333,0 -23,0 0,-21 0,-42 0,-63 9,0 18,0 27,0 -0.004,3.83 1.662,4.83 5,3 6.306,6.545 13.97,10.211 23,11 2.51,1.367 4.85,1.034 7,-1 0.33,0 0.67,0 1,0 2.39,-0.185 3.39,-1.518 3,-4 -0.14,-1.53 -0.81,-2.53 -2,-3 -4.15,-3.409 -8.82,-5.742 -14,-7 -2.01,-1.424 -4.35,-2.09 -7,-2 -5.819,-0.918 -11.153,-2.918 -16,-6 -0.473,-1.406 -1.473,-2.073 -3,-2 -9.826,-5.611 -16.326,-13.944 -19.5,-25 -5.894,-19.855 -2.561,-37.855 10,-54 13.299,-11.889 28.466,-15.556 45.5,-11 z" id="path290" />
  </g>
  <g id="g296" transform="translate(-83.464394,-36.5)">
    <path style="opacity:0.953" fill="#5e6b83" d="m 129.5,834.5 c -2.773,1.157 -5.773,1.824 -9,2 2.671,-1.618 5.671,-2.285 9,-2 z" id="path294" />
  </g>
  <g id="g300" transform="translate(-83.464394,-36.5)">
    <path style="opacity:0.953" fill="#6c788f" d="m 258.5,834.5 c -2.405,1.268 -5.072,1.935 -8,2 2.338,-1.54 5.005,-2.206 8,-2 z" id="path298" />
  </g>
  <g id="g304" transform="translate(-83.464394,-36.5)">
    <path style="opacity:1" fill="#12264f" d="m 326.5,868.5 c 0.065,2.928 0.732,5.595 2,8 1.164,28.164 1.33,56.497 0.5,85 -4.469,21.802 -17.636,34.969 -39.5,39.5 -19.803,3.77 -38.803,1.43 -57,-7 -12.857,-7.866 -20.023,-19.366 -21.5,-34.5 -0.667,-26 -0.667,-52 0,-78 0.272,-2.754 0.772,-5.421 1.5,-8 2.344,-2.869 3.677,-6.202 4,-10 1.157,-4.476 3.49,-8.142 7,-11 1.667,-1 3,-2.333 4,-4 6.362,-6.349 14.029,-10.349 23,-12 2.928,-0.065 5.595,-0.732 8,-2 17.638,-2.894 34.305,-0.06 50,8.5 9.095,6.372 15.095,14.872 18,25.5 z m -70,22 c 1.109,-0.79 2.442,-1.29 4,-1.5 7.333,-0.667 14.667,-0.667 22,0 2.955,0.392 5.122,1.892 6.5,4.5 1.62,15.599 1.953,31.266 1,47 -1.94,5.232 -5.773,7.898 -11.5,8 -5.333,0 -10.667,0 -16,0 -3.348,-0.585 -6.348,-1.918 -9,-4 -1.152,-16.956 -1.319,-33.956 -0.5,-51 0.759,-1.563 1.926,-2.563 3.5,-3 z" id="path302" />
  </g>
  <g id="g308" transform="translate(-83.464394,-36.5)">
    <path style="opacity:1" fill="#10254e" d="m 479.5,937.5 c 0.041,2.245 0.875,2.912 2.5,2 0.977,-2.24 1.477,-4.573 1.5,-7 -0.237,-1.291 0.096,-2.291 1,-3 1.424,-2.015 2.09,-4.348 2,-7 1.095,-5.284 2.761,-10.284 5,-15 2.11,-4.002 3.443,-8.335 4,-13 0,-0.667 0,-1.333 0,-2 2.297,-2.83 1.963,-4.83 -1,-6 -2.28,-1.723 -4.947,-2.389 -8,-2 0,-16.333 0,-32.667 0,-49 49.333,0 98.667,0 148,0 13.484,0.51 24.151,6.177 32,17 -0.073,1.527 0.594,2.527 2,3 12.171,17.742 13.004,36.076 2.5,55 -2.175,2.876 -4.675,5.376 -7.5,7.5 4.711,3.935 8.044,8.768 10,14.5 1.729,7.888 2.729,15.888 3,24 -3.419,24.752 -17.419,39.419 -42,44 -0.667,0 -1.333,0 -2,0 -29.162,-0.998 -58.495,-1.331 -88,-1 0,-16 0,-32 0,-48 4.778,0.335 8.778,0.002 12,-1 0,-0.333 0,-0.667 0,-1 4.089,-0.088 6.756,-2.088 8,-6 0.972,-16.953 1.305,-33.953 1,-51 0.215,-1.679 -0.452,-2.679 -2,-3 -2.149,-2.246 -4.816,-3.746 -8,-4.5 -6.8,-0.811 -13.134,-0.145 -19,2 -2.167,1.5 -4,3.333 -5.5,5.5 -8.963,25.394 -17.796,50.727 -26.5,76 -1.574,1.602 -2.241,3.602 -2,6 -1.8,6.067 -3.8,12.067 -6,18 -1.431,1.28 -2.098,2.947 -2,5 0.237,1.291 -0.096,2.291 -1,3 -11.919,0.61 -23.586,-0.05 -35,-2 -4.089,-9.996 -7.422,-20.33 -10,-31 -0.486,-2.307 -0.486,-4.473 0,-6.5 -1.191,-0.698 -2.191,-1.531 -3,-2.5 -1.564,-4.187 -3.064,-8.52 -4.5,-13 -2.233,6.552 -4.733,12.885 -7.5,19 -1.431,1.28 -2.098,2.947 -2,5 -0.095,2.286 -0.762,4.286 -2,6 -1.431,1.28 -2.098,2.947 -2,5 -1.771,6.874 -4.105,13.54 -7,20 -10.687,0.33 -21.354,0 -32,-1 -1.211,-1.22 -1.211,-2.387 0,-3.5 -1.191,-0.698 -2.191,-1.531 -3,-2.5 0.155,-3.216 -0.845,-5.883 -3,-8 -5.334,-17.001 -10.667,-34.001 -16,-51 0.38,-2.198 -0.287,-3.865 -2,-5 -1.869,-5.608 -3.536,-11.275 -5,-17 -0.17,-1.322 0.163,-2.489 1,-3.5 -1.191,-0.698 -2.191,-1.531 -3,-2.5 -1.601,-5.692 -4.101,-11.025 -7.5,-16 -2.052,-1.558 -4.219,-2.892 -6.5,-4 -3.462,-0.982 -7.129,-1.315 -11,-1 0,-16.667 0,-33.333 0,-50 24.333,0 48.667,0 73,0 0,16.667 0,33.333 0,50 -3.613,-0.02 -7.279,0.814 -11,2.5 -0.622,1.569 -0.956,3.236 -1,5 3.033,11.597 6.366,23.097 10,34.5 -0.09,2.652 0.576,4.985 2,7 0.732,1.308 1.566,2.642 2.5,4 1.744,-5.399 3.577,-10.732 5.5,-16 2.155,-2.117 3.155,-4.784 3,-8 -0.172,-0.992 0.162,-1.658 1,-2 1.498,-2.797 3.165,-5.63 5,-8.5 -0.752,-0.671 -1.086,-1.504 -1,-2.5 -0.067,-1.459 0.266,-2.792 1,-4 2.034,-2.155 2.367,-4.488 1,-7 0,-3.333 -1.667,-5 -5,-5 -2.063,1.049 -4.063,0.716 -6,-1 0.264,-16.313 0.431,-32.646 0.5,-49 10.926,-0.661 21.926,-0.995 33,-1 11.074,0.005 22.074,0.339 33,1 0.5,16.663 0.667,33.33 0.5,50 -7.035,-1.068 -11.368,1.765 -13,8.5 4.444,14.497 8.778,28.997 13,43.5 z m 152,-51 c 6.854,5.232 6.521,9.899 -1,14 -8,0 -16,0 -24,0 0,-4.667 0,-9.333 0,-14 8.333,0 16.667,0 25,0 z m -24,47 c 8.189,-0.307 16.522,0.026 25,1 2.478,2.829 3.478,6.162 3,10 -1.361,2.027 -3.027,3.694 -5,5 -7.674,0.166 -15.341,0 -23,-0.5 -1.31,-5.166 -1.31,-10.333 0,-15.5 z" id="path306" />
  </g>
  <g id="g312" transform="translate(-83.464394,-36.5)">
    <path style="opacity:1" fill="#10254e" d="m 882.5,835.5 c 0,17 0,34 0,51 -4.333,0 -8.667,0 -13,0 0.108,2.283 0.941,4.283 2.5,6 4.355,4.854 8.522,9.854 12.5,15 6.387,-6.054 12.054,-12.721 17,-20 -4.817,-0.667 -9.483,-1.334 -14,-2 0,-16.667 0,-33.333 0,-50 22,0 44,0 66,0 1.162,16.495 1.328,33.162 0.5,50 -5.164,0.641 -10.331,1.475 -15.5,2.5 -9.899,12.329 -19.899,24.496 -30,36.5 -1.406,0.473 -2.073,1.473 -2,3 -4.112,3.778 -6.445,8.445 -7,14 -0.237,1.291 0.096,2.291 1,3 0.333,0 0.667,0 1,0 1.126,1.953 2.792,3.453 5,4.5 3.918,1.156 7.918,1.656 12,1.5 0,16.667 0,33.333 0,50 -27.667,0 -55.333,0 -83,0 0,-16.333 0,-32.667 0,-49 4.679,0.166 9.345,-10e-4 14,-0.5 2.153,-0.099 3.819,-0.933 5,-2.5 3.11,-3.331 4.444,-7.331 4,-12 0.271,-1.88 -0.396,-3.213 -2,-4 -1.306,-1.973 -2.973,-3.639 -5,-5 -0.057,-1.109 -0.39,-2.109 -1,-3 -0.863,-1.44 -0.863,-2.774 0,-4 -4.48,-3.606 -7.48,-8.272 -9,-14 -1.896,-0.966 -3.896,-1.299 -6,-1 -4.538,-5.894 -9.205,-11.727 -14,-17.5 -4.406,-1.041 -8.739,-1.874 -13,-2.5 0,-16.667 0,-33.333 0,-50 24.667,0 49.333,0 74,0 z" id="path310" />
  </g>
  <g id="g316" transform="translate(-83.464394,-36.5)">
    <path style="opacity:0.271" fill="#9fa8bb" d="m 1036.5,897.5 c 8.33,0 16.67,0 25,0 0,-20.667 0,-41.333 0,-62 -9.75,-0.306 -19.42,0.027 -29,1 9.61,-1.974 19.61,-2.641 30,-2 0,21.333 0,42.667 0,64 -8.85,0.326 -17.52,-0.007 -26,-1 z" id="path314" />
  </g>
  <g id="g320" transform="translate(-83.464394,-36.5)">
    <path style="opacity:0.992" fill="#7a859c" d="m 634.5,835.5 c -49.333,0 -98.667,0 -148,0 0,16.333 0,32.667 0,49 3.053,-0.389 5.72,0.277 8,2 -3.52,-0.305 -6.853,-1.138 -10,-2.5 0.039,-16.484 0.372,-32.984 1,-49.5 49.836,-0.332 99.503,10e-4 149,1 z" id="path318" />
  </g>
  <g id="g324" transform="translate(-83.464394,-36.5)">
    <path style="opacity:1" fill="#525d7b" d="m 1014.5,835.5 c 3.2,0.952 6.2,2.285 9,4 -1.9,0.42 -3.73,0.42 -5.5,0 -1.03,-1.527 -2.2,-2.86 -3.5,-4 z" id="path322" />
  </g>
  <g id="g328" transform="translate(-83.464394,-36.5)">
    <path style="opacity:0.404" fill="#969fb2" d="m 775.5,838.5 c 1.527,-0.073 2.527,0.594 3,2 -1.527,0.073 -2.527,-0.594 -3,-2 z" id="path326" />
  </g>
  <g id="g332" transform="translate(-83.464394,-36.5)">
    <path style="opacity:0.404" fill="#99a2b5" d="m 405.5,885.5 c 0,-16.667 0,-33.333 0,-50 -24.333,0 -48.667,0 -73,0 0,16.667 0,33.333 0,50 3.871,-0.315 7.538,0.018 11,1 -4,0 -8,0 -12,0 0,-17.333 0,-34.667 0,-52 25,0 50,0 75,0 0.33,17.175 -0.003,34.175 -1,51 z" id="path330" />
  </g>
  <g id="g336" transform="translate(-83.464394,-36.5)">
    <path style="opacity:0.631" fill="#8691a4" d="m 227.5,848.5 c -1,1.667 -2.333,3 -4,4 0.333,-2.333 1.667,-3.667 4,-4 z" id="path334" />
  </g>
  <g id="g340" transform="translate(-83.464394,-36.5)">
    <path style="opacity:0.631" fill="#7c879c" d="m 666.5,852.5 c 1.406,0.473 2.073,1.473 2,3 -1.406,-0.473 -2.073,-1.473 -2,-3 z" id="path338" />
  </g>
  <g id="g344" transform="translate(-83.464394,-36.5)">
    <path style="opacity:0.631" fill="#7c879c" d="m 794.5,852.5 c 1.406,0.473 2.073,1.473 2,3 -1.406,-0.473 -2.073,-1.473 -2,-3 z" id="path342" />
  </g>
  <g id="g348" transform="translate(-83.464394,-36.5)">
    <path style="opacity:1" fill="#4b5572" d="m 216.5,863.5 c -0.323,3.798 -1.656,7.131 -4,10 0.372,-3.797 1.706,-7.13 4,-10 z" id="path346" />
  </g>
  <g id="g352" transform="translate(-83.464394,-36.5)">
    <path style="opacity:0.631" fill="#707c93" d="m 326.5,868.5 c 1.54,2.338 2.206,5.005 2,8 -1.268,-2.405 -1.935,-5.072 -2,-8 z" id="path350" />
  </g>
  <g id="g356" transform="translate(-83.464394,-36.5)">
    <path style="opacity:0.827" fill="#7b869c" d="m 804.5,876.5 c 0.783,3.009 1.45,6.176 2,9.5 -0.07,0.765 -0.403,1.265 -1,1.5 0.172,-0.992 -0.162,-1.658 -1,-2 0,-3 0,-6 0,-9 z" id="path354" />
  </g>
  <g id="g360" transform="translate(-83.464394,-36.5)">
    <path style="opacity:0.404" fill="#8f99ac" d="m 418.5,885.5 c 3.333,0 5,1.667 5,5 -1.333,-2 -3,-3.667 -5,-5 z" id="path358" />
  </g>
  <g id="g364" transform="translate(-83.464394,-36.5)">
    <path style="opacity:0.518" fill="#8e99ad" d="m 631.5,886.5 c -8.333,0 -16.667,0 -25,0 0,4.667 0,9.333 0,14 8,0 16,0 24,0 -8.15,0.993 -16.483,1.326 -25,1 0,-5.333 0,-10.667 0,-16 8.849,-0.326 17.516,0.007 26,1 z" id="path362" />
  </g>
  <g id="g368" transform="translate(-83.464394,-36.5)">
    <path style="opacity:0.518" fill="#626e88" d="m 494.5,886.5 c 2.963,1.17 3.297,3.17 1,6 -0.017,-2.065 -0.35,-4.065 -1,-6 z" id="path366" />
  </g>
  <g id="g372" transform="translate(-83.464394,-36.5)">
    <path style="opacity:0.992" fill="#808aa0" d="m 563.5,889.5 c 1.548,0.321 2.215,1.321 2,3 -0.901,-0.79 -1.568,-1.79 -2,-3 z" id="path370" />
  </g>
  <g id="g376" transform="translate(-83.464394,-36.5)">
    <path style="opacity:0.827" fill="#5b6882" d="m 423.5,890.5 c 1.367,2.512 1.034,4.845 -1,7 0.832,-2.499 1.165,-4.832 1,-7 z" id="path374" />
  </g>
  <g id="g380" transform="translate(-83.464394,-36.5)">
    <path style="opacity:0.271" fill="#a7b0c2" d="m 162.5,891.5 c 1.25,0.077 2.083,0.744 2.5,2 0.5,6.658 0.666,13.325 0.5,20 -0.828,-6.153 -1.328,-12.487 -1.5,-19 -0.513,-1.027 -1.013,-2.027 -1.5,-3 z" id="path378" />
  </g>
  <g id="g384" transform="translate(-83.464394,-36.5)">
    <path style="opacity:1" fill="#646f8a" d="m 495.5,894.5 c -0.557,4.665 -1.89,8.998 -4,13 0.557,-4.665 1.89,-8.998 4,-13 z" id="path382" />
  </g>
  <g id="g388" transform="translate(-83.464394,-36.5)">
    <path style="opacity:0.827" fill="#3b4a67" d="m 763.5,890.5 c 2.099,0.928 3.766,2.428 5,4.5 -0.659,15.265 -1.326,30.431 -2,45.5 0.167,-15.004 0,-30.004 -0.5,-45 -0.847,-1.693 -1.68,-3.36 -2.5,-5 z" id="path386" />
  </g>
  <g id="g392" transform="translate(-83.464394,-36.5)">
    <path style="opacity:1" fill="#545f7b" d="m 421.5,901.5 c -0.086,0.996 0.248,1.829 1,2.5 -1.835,2.87 -3.502,5.703 -5,8.5 0.565,-4.037 1.899,-7.703 4,-11 z" id="path390" />
  </g>
  <g id="g396" transform="translate(-83.464394,-36.5)">
    <path style="opacity:0.827" fill="#56637c" d="m 804.5,885.5 c 0.838,0.342 1.172,1.008 1,2 0.625,3.083 0.958,6.249 1,9.5 -0.566,21.664 -1.233,43.164 -2,64.5 0,-25.333 0,-50.667 0,-76 z" id="path394" />
  </g>
  <g id="g400" transform="translate(-83.464394,-36.5)">
    <path style="opacity:1" fill="#626d88" d="m 357.5,906.5 c 0.809,0.969 1.809,1.802 3,2.5 -0.837,1.011 -1.17,2.178 -1,3.5 -1.238,-1.714 -1.905,-3.714 -2,-6 z" id="path398" />
  </g>
  <g id="g404" transform="translate(-83.464394,-36.5)">
    <path style="opacity:1" fill="#313d61" d="m 835.5,905.5 c 2.104,-0.299 4.104,0.034 6,1 1.52,5.728 4.52,10.394 9,14 -0.863,1.226 -0.863,2.56 0,4 -5.23,-6.113 -10.23,-12.446 -15,-19 z" id="path402" />
  </g>
  <g id="g408" transform="translate(-83.464394,-36.5)">
    <path style="opacity:0.953" fill="#808b9f" d="m 416.5,914.5 c 0.155,3.216 -0.845,5.883 -3,8 0.629,-2.897 1.629,-5.564 3,-8 z" id="path406" />
  </g>
  <g id="g412" transform="translate(-83.464394,-36.5)">
    <path style="opacity:0.992" fill="#636f88" d="m 199.5,923.5 c 0.666,5.824 1,11.824 1,18 0.187,8.887 -0.48,17.553 -2,26 -0.316,-14.745 0.017,-29.412 1,-44 z" id="path410" />
  </g>
  <g id="g416" transform="translate(-83.464394,-36.5)">
    <path style="opacity:0.953" fill="#707c92" d="m 486.5,922.5 c 0.09,2.652 -0.576,4.985 -2,7 -0.09,-2.652 0.576,-4.985 2,-7 z" id="path414" />
  </g>
  <g id="g420" transform="translate(-83.464394,-36.5)">
    <path style="opacity:0.098" fill="#b6becd" d="m 908.5,924.5 c 0.073,1.527 -0.594,2.527 -2,3 -0.073,-1.527 0.594,-2.527 2,-3 z" id="path418" />
  </g>
  <g id="g424" transform="translate(-83.464394,-36.5)">
    <path style="opacity:0.518" fill="#848fa4" d="m 978.5,925.5 c 1.527,-0.073 2.527,0.594 3,2 -1.527,0.073 -2.527,-0.594 -3,-2 z" id="path422" />
  </g>
  <g id="g428" transform="translate(-83.464394,-36.5)">
    <path style="opacity:0.098" fill="#d3dbe5" d="m 851.5,927.5 c -0.667,0.667 -0.667,0.667 0,0 z" id="path426" />
  </g>
  <g id="g432" transform="translate(-83.464394,-36.5)">
    <path style="opacity:0.827" fill="#768298" d="m 403.5,927.5 c 1.424,2.015 2.09,4.348 2,7 -1.424,-2.015 -2.09,-4.348 -2,-7 z" id="path430" />
  </g>
  <g id="g436" transform="translate(-83.464394,-36.5)">
    <path style="opacity:0.631" fill="#8c96aa" d="m 364.5,929.5 c 1.713,1.135 2.38,2.802 2,5 -1.037,-1.43 -1.704,-3.097 -2,-5 z" id="path434" />
  </g>
  <g id="g440" transform="translate(-83.464394,-36.5)">
    <path style="opacity:0.404" fill="#a1aabc" d="m 856.5,932.5 c 1.604,0.787 2.271,2.12 2,4 -1.174,-1.014 -1.84,-2.347 -2,-4 z" id="path438" />
  </g>
  <g id="g444" transform="translate(-83.464394,-36.5)">
    <path style="opacity:0.737" fill="#6e7a92" d="m 997.5,933.5 c 2.65,-0.09 4.99,0.576 7,2 -2.65,0.09 -4.985,-0.576 -7,-2 z" id="path442" />
  </g>
  <g id="g448" transform="translate(-83.464394,-36.5)">
    <path style="opacity:1" fill="#68738e" d="m 483.5,932.5 c -0.023,2.427 -0.523,4.76 -1.5,7 -1.625,0.912 -2.459,0.245 -2.5,-2 0.617,0.111 1.117,0.444 1.5,1 0.566,-2.223 1.4,-4.223 2.5,-6 z" id="path446" />
  </g>
  <g id="g452" transform="translate(-83.464394,-36.5)">
    <path style="opacity:1" fill="#535d7c" d="m 632.5,934.5 c 1.322,-0.17 2.489,0.163 3.5,1 0.805,3.196 0.638,6.196 -0.5,9 0.478,-3.838 -0.522,-7.171 -3,-10 z" id="path450" />
  </g>
  <g id="g456" transform="translate(-83.464394,-36.5)">
    <path style="opacity:0.271" fill="#b2bbcb" d="m 954.5,935.5 c 0,0.333 0,0.667 0,1 0,21 0,42 0,63 7.667,0 15.333,0 23,0 -7.816,0.99 -15.816,1.33 -24,1 -0.331,-21.84 0.003,-43.506 1,-65 z" id="path454" />
  </g>
  <g id="g460" transform="translate(-83.464394,-36.5)">
    <path style="opacity:1" fill="#3e4b6a" d="m 986.5,939.5 c -3.338,1.83 -5.004,0.83 -5,-3 -9,0 -18,0 -27,0 0,-0.333 0,-0.667 0,-1 8.918,0.317 17.751,-0.016 26.5,-1 2.328,1.164 4.162,2.83 5.5,5 z" id="path458" />
  </g>
  <g id="g464" transform="translate(-83.464394,-36.5)">
    <path style="opacity:0.953" fill="#79849b" d="m 673.5,932.5 c 2.545,5.94 3.879,12.273 4,19 -0.007,1.869 -0.34,3.536 -1,5 -0.271,-8.112 -1.271,-16.112 -3,-24 z" id="path462" />
  </g>
  <g id="g468" transform="translate(-83.464394,-36.5)">
    <path style="opacity:0.098" fill="#bbc3d2" d="m 899.5,941.5 c 0.739,-0.131 1.406,0.036 2,0.5 -0.752,0.671 -1.086,1.504 -1,2.5 -0.904,-0.709 -1.237,-1.709 -1,-3 z" id="path466" />
  </g>
  <g id="g472" transform="translate(-83.464394,-36.5)">
    <path style="opacity:0.098" fill="#d3dbe5" d="m 901.5,943.5 c 1.333,0.667 1.333,0.667 0,0 z" id="path470" />
  </g>
  <g id="g476" transform="translate(-83.464394,-36.5)">
    <path style="opacity:0.827" fill="#636e88" d="m 564.5,943.5 c -1.244,3.912 -3.911,5.912 -8,6 2.904,-1.555 5.57,-3.555 8,-6 z" id="path474" />
  </g>
  <g id="g480" transform="translate(-83.464394,-36.5)">
    <path style="opacity:0.953" fill="#818ca0" d="m 730.5,945.5 c 1.21,0.432 2.21,1.099 3,2 -1.679,0.215 -2.679,-0.452 -3,-2 z" id="path478" />
  </g>
  <g id="g484" transform="translate(-83.464394,-36.5)">
    <path style="opacity:0.992" fill="#737f96" d="m 1018.5,942.5 c 1.19,0.47 1.86,1.47 2,3 0.39,2.482 -0.61,3.815 -3,4 2.1,-2.083 2.44,-4.417 1,-7 z" id="path482" />
  </g>
  <g id="g488" transform="translate(-83.464394,-36.5)">
    <path style="opacity:0.827" fill="#4a5873" d="m 607.5,933.5 c -1.31,5.167 -1.31,10.334 0,15.5 7.659,0.5 15.326,0.666 23,0.5 -7.823,1.156 -15.823,1.323 -24,0.5 -0.643,-2.746 -0.976,-5.579 -1,-8.5 0.022,-3.09 0.688,-5.757 2,-8 z" id="path486" />
  </g>
  <g id="g492" transform="translate(-83.464394,-36.5)">
    <path style="opacity:0.827" fill="#5c6982" d="m 1016.5,949.5 c -2.15,2.034 -4.49,2.367 -7,1 2.36,-0.174 4.69,-0.507 7,-1 z" id="path490" />
  </g>
  <g id="g496" transform="translate(-83.464394,-36.5)">
    <path style="opacity:0.737" fill="#4e5c76" d="m 854.5,948.5 c -1.181,1.567 -2.847,2.401 -5,2.5 -4.655,0.499 -9.321,0.666 -14,0.5 0,16.333 0,32.667 0,49 -0.333,0 -0.667,0 -1,0 0,-16.667 0,-33.333 0,-50 6.8,0.372 13.467,-0.294 20,-2 z" id="path494" />
  </g>
  <g id="g500" transform="translate(-83.464394,-36.5)">
    <path style="opacity:1" fill="#65708b" d="m 445.5,958.5 c 0.809,0.969 1.809,1.802 3,2.5 -0.486,2.027 -0.486,4.193 0,6.5 -1.572,-2.715 -2.572,-5.715 -3,-9 z" id="path498" />
  </g>
  <g id="g504" transform="translate(-83.464394,-36.5)">
    <path style="opacity:0.631" fill="#7a859b" d="m 433.5,964.5 c 0.098,2.053 -0.569,3.72 -2,5 -0.098,-2.053 0.569,-3.72 2,-5 z" id="path502" />
  </g>
  <g id="g508" transform="translate(-83.464394,-36.5)">
    <path style="opacity:0.631" fill="#8691a5" d="m 504.5,968.5 c -0.095,2.286 -0.762,4.286 -2,6 -0.241,-2.398 0.426,-4.398 2,-6 z" id="path506" />
  </g>
  <g id="g512" transform="translate(-83.464394,-36.5)">
    <path style="opacity:1" fill="#384467" d="m 692.5,977.5 c 1.347,0.671 2.514,0.671 3.5,0 1.681,2.048 3.181,4.215 4.5,6.5 -0.752,0.671 -1.086,1.504 -1,2.5 -2.685,-2.69 -5.018,-5.69 -7,-9 z" id="path510" />
  </g>
  <g id="g516" transform="translate(-83.464394,-36.5)">
    <path style="opacity:0.631" fill="#7e8a9f" d="m 429.5,975.5 c 0.098,2.053 -0.569,3.72 -2,5 -0.098,-2.053 0.569,-3.72 2,-5 z" id="path514" />
  </g>
  <g id="g520" transform="translate(-83.464394,-36.5)">
    <path style="opacity:0.631" fill="#8e98ab" d="m 382.5,985.5 c 2.155,2.117 3.155,4.784 3,8 -1.371,-2.436 -2.371,-5.103 -3,-8 z" id="path518" />
  </g>
  <g id="g524" transform="translate(-83.464394,-36.5)">
    <path style="opacity:1" fill="#485374" d="m 785.5,992.5 c -1.836,2.088 -4.169,3.421 -7,4 -0.157,-1.373 0.01,-2.707 0.5,-4 0.308,0.808 0.808,1.475 1.5,2 1.196,-0.346 1.196,-0.846 0,-1.5 1.634,-0.494 3.301,-0.66 5,-0.5 z" id="path522" />
  </g>
  <g id="g528" transform="translate(-83.464394,-36.5)">
    <path style="opacity:0.631" fill="#828da2" d="m 496.5,992.5 c 0.098,2.053 -0.569,3.72 -2,5 -0.098,-2.053 0.569,-3.72 2,-5 z" id="path526" />
  </g>
  <g id="g532" transform="translate(-83.464394,-36.5)">
    <path style="opacity:1" fill="#5e6986" d="m 717.5,997.5 c 2.652,-0.09 4.985,0.576 7,2 -2.652,0.09 -4.985,-0.576 -7,-2 z" id="path530" />
  </g>
  <g id="g536" transform="translate(-83.464394,-36.5)">
    <path style="opacity:0.953" fill="#69758c" d="m 1000.5,998.5 c 2.65,-0.09 4.99,0.576 7,2 -2.65,0.09 -4.99,-0.576 -7,-2 z" id="path534" />
  </g>
  <g id="g540" transform="translate(-83.464394,-36.5)">
    <path style="opacity:1" fill="#04163a" d="m 556.5,950.5 c -3.222,1.002 -7.222,1.335 -12,1 0,16 0,32 0,48 29.505,-0.331 58.838,0.002 88,1 -29.667,0 -59.333,0 -89,0 0,-16.667 0,-33.333 0,-50 4.333,0 8.667,0 13,0 z" id="path538" />
  </g>
  <g id="g544" transform="translate(-83.464394,-36.5)">
    <path style="opacity:0.518" fill="#7b869d" d="m 385.5,993.5 c 0.809,0.969 1.809,1.802 3,2.5 -1.211,1.113 -1.211,2.28 0,3.5 10.646,1 21.313,1.33 32,1 -10.84,1.32 -21.84,1.32 -33,0 -1.077,-2.229 -1.744,-4.563 -2,-7 z" id="path542" />
  </g>
  <g id="g548" transform="translate(-83.464394,-36.5)">
    <path style="opacity:0.518" fill="#808ba1" d="m 458.5,998.5 c 11.414,1.95 23.081,2.61 35,2 -11.488,0.99 -23.155,1.33 -35,1 0,-1 0,-2 0,-3 z" id="path546" />
  </g>
  <g id="g552" transform="translate(-83.464394,-36.5)">
    <path style="opacity:0.518" fill="#808ba1" d="m 556.5,949.5 c 0,0.333 0,0.667 0,1 -4.333,0 -8.667,0 -13,0 0,16.667 0,33.333 0,50 29.667,0 59.333,0 89,0 0.667,0 1.333,0 2,0 -30.495,1 -61.162,1.33 -92,1 0,-17.333 0,-34.667 0,-52 4.667,0 9.333,0 14,0 z" id="path550" />
  </g>
  <g id="g556" transform="translate(-83.464394,-36.5)">
    <path style="opacity:0.518" fill="#8590a5" d="m 918.5,950.5 c 0.997,16.825 1.33,33.825 1,51 -28.505,0.33 -56.838,0 -85,-1 0.333,0 0.667,0 1,0 27.667,0 55.333,0 83,0 0,-16.667 0,-33.333 0,-50 z" id="path554" />
  </g>
  <g id="g560" transform="translate(-83.464394,-36.5)">
    <path style="opacity:0.631" fill="#6e7991" d="m 770.5,999.5 c -3.128,1.13 -6.462,1.97 -10,2.5 -8.51,0.82 -16.844,0.66 -25,-0.5 7.674,0.17 15.341,0 23,-0.5 2.708,-0.24 5.208,-1.069 7.5,-2.5 1.44,0.648 2.94,0.981 4.5,1 z" id="path558" />
  </g>
</svg>
