<?xml version='1.0' encoding='utf-8'?>
<svg xmlns="http://www.w3.org/2000/svg" version="1.0" id="katman_1" x="0px" y="0px" viewBox="594.179 144.184 54.286 54.286" style="enable-background:new 0 0 841.9 595.3;" xml:space="preserve" width="54.286" height="54.286">
<style type="text/css">
	.st0{fill:#1D1D1B;stroke:#FFFFFF;stroke-miterlimit:10;}
	.st1{fill:#007AFF;}
	.st2{fill-rule:evenodd;clip-rule:evenodd;fill:url(#SVGID_1_);}
	.st3{fill:none;stroke:#FFFFFF;stroke-width:0.8661;stroke-linecap:round;stroke-dasharray:4.3303,4.3303;}
	.st4{fill:#FFFFFF;}
	.st5{clip-path:url(#SVGID_00000169559284587997011770000001680049341881123006_);}
	.st6{clip-path:url(#SVGID_00000140733826385674337890000012207656223092033961_);}
	.st7{fill-rule:evenodd;clip-rule:evenodd;fill:url(#SVGID_00000127756945822952148600000017211304151171986594_);}
	.st8{clip-path:url(#SVGID_00000095325924958277968310000011090993496707912338_);}
	.st9{fill:url(#SVGID_00000132804241574815587380000013694999902506105531_);}
	.st10{fill-rule:evenodd;clip-rule:evenodd;fill:#FFFFFF;}
	.st11{clip-path:url(#SVGID_00000003101963382865194270000003000627390176341387_);}
	.st12{clip-path:url(#SVGID_00000083800700511276324970000011057176996843952554_);}
	.st13{fill:url(#SVGID_00000050629011746579458380000015425667268656239252_);}
	.st14{fill:url(#SVGID_00000028317546427265171440000010303803937611573395_);}
	.st15{fill:url(#SVGID_00000110466825288056453580000004473042016967307693_);}
	.st16{clip-path:url(#SVGID_00000059279171559231674370000007789023456756133817_);}
	.st17{fill-rule:evenodd;clip-rule:evenodd;fill:url(#SVGID_00000056400665740700910630000014011468844001703829_);}
	.st18{fill:url(#SVGID_00000072964980343507207890000012372953291326961814_);}
	.st19{fill:#2E2E2F;}
	.st20{fill-rule:evenodd;clip-rule:evenodd;fill:url(#SVGID_00000019660104336037623730000002332818914446395286_);}
	.st21{fill-rule:evenodd;clip-rule:evenodd;fill:url(#SVGID_00000059988906173483090130000003725987650554492075_);}
	.st22{clip-path:url(#SVGID_00000123439814086434677550000009578774968977313931_);}
	.st23{fill:#FFCC00;}
	.st24{fill:url(#SVGID_00000098222239028929855750000015975302820860414874_);}
	.st25{fill:#F082CA;}
	.st26{clip-path:url(#SVGID_00000065794539600985918330000009979745497713054910_);}
	.st27{fill:none;stroke:#FFFFFF;stroke-width:8.6752;}
	.st28{fill-rule:evenodd;clip-rule:evenodd;fill:#D2D1D6;}
	.st29{fill:#F2F1F6;}
	.st30{fill:url(#SVGID_00000154414039008919394870000009308455991876927638_);}
	.st31{fill:#EEF0F6;}
	.st32{fill:url(#SVGID_00000063609387477656280520000015001829332691159187_);stroke:#FFFFFF;stroke-width:2.0175;}
	.st33{clip-path:url(#SVGID_00000043429356754651474940000016271565366277716630_);}
	.st34{clip-path:url(#SVGID_00000021099381970965978420000008586690910372192417_);}
	.st35{fill:url(#SVGID_00000101785228611426535140000004504457203846382246_);}
	.st36{fill:url(#SVGID_00000052810696567888445980000004246205331400893334_);}
	.st37{fill-rule:evenodd;clip-rule:evenodd;fill:url(#SVGID_00000011011443635323359780000001673808163312350361_);}
	.st38{fill:#FCCA00;}
	.st39{fill:#D4D4D2;}
	.st40{fill:#1C1C1C;}
	.st41{fill:#505050;}
	.st42{fill:#C4C4C4;}
	.st43{fill:#FF9500;}
	.st44{fill:#1B1A1D;}
	.st45{clip-path:url(#SVGID_00000008123284540177149580000000032594139965911475_);}
	.st46{fill:#ADAFB3;}
	.st47{fill:#717374;}
	.st48{fill:none;stroke:#FFFFFF;stroke-width:0.3715;}
	.st49{fill:none;stroke:#000000;stroke-width:0.3715;}
	.st50{fill-rule:evenodd;clip-rule:evenodd;fill:url(#SVGID_00000127003442601177786600000008530735680464670643_);}
	.st51{clip-path:url(#SVGID_00000141448531618483444980000017591460112124076934_);}
	.st52{fill-rule:evenodd;clip-rule:evenodd;fill:url(#SVGID_00000057106904373034119160000009178174399872791997_);}
	.st53{fill-rule:evenodd;clip-rule:evenodd;fill:url(#SVGID_00000085933074591322303650000010973822223702728364_);}
	.st54{fill-rule:evenodd;clip-rule:evenodd;fill:url(#SVGID_00000018940404396486483940000015965465724988250513_);}
	.st55{fill-rule:evenodd;clip-rule:evenodd;fill:#C6C5C9;}
	.st56{fill:url(#SVGID_00000083055160680319659550000017508175989685385633_);}
	.st57{fill:#FEFEFE;}
	.st58{clip-path:url(#SVGID_00000036954299323444155710000008238764456450609808_);}
	.st59{fill:url(#SVGID_00000106843678763182619190000013091051689353888643_);}
	.st60{fill:url(#SVGID_00000085962153756749195620000001944282290042037142_);}
	.st61{fill:url(#SVGID_00000142894359843690597090000008821228339835623613_);}
	.st62{fill:url(#SVGID_00000110434242627761929900000000305629704864546705_);}
	.st63{fill:url(#SVGID_00000074419657695312326450000008796769431227781564_);}
	.st64{fill:url(#SVGID_00000088843855316597180630000015063631046530089374_);}
	.st65{fill:url(#SVGID_00000176756238184645219870000010883018676637209757_);}
	.st66{fill:url(#SVGID_00000029755545736006181240000011132471224183424170_);}
	.st67{opacity:0.7;}
	.st68{fill:url(#SVGID_00000145775618130392599330000003860235132861142459_);}
	.st69{fill:url(#SVGID_00000141430125288304860680000017502267771967275170_);}
	.st70{fill:url(#SVGID_00000082364480727150996310000013622586382750793095_);}
	.st71{fill:url(#SVGID_00000049218882861158809750000007254916272287645056_);}
	.st72{fill:url(#SVGID_00000023968085636215123370000009800543137075065480_);}
	.st73{fill:url(#SVGID_00000103953562533916905860000016189435058193672073_);}
	.st74{fill:url(#SVGID_00000075863875249470220880000003744599122929820344_);}
	.st75{fill:url(#SVGID_00000083076552541146471040000004241969822777097907_);}
	.st76{fill:#202020;}
	.st77{fill:#262626;}
	.st78{fill:none;stroke:#262626;stroke-width:0.7994;}
	.st79{fill-rule:evenodd;clip-rule:evenodd;fill:#EF8732;}
	.st80{fill-rule:evenodd;clip-rule:evenodd;fill:#F78E1B;}
	.st81{fill:#F88E1A;}
	.st82{fill:#FFAE27;}
	.st83{fill:#FFC149;}
	.st84{fill:#FFD466;}
	.st85{fill:#FEE780;}
	.st86{clip-path:url(#SVGID_00000173120890044484368060000013640617853665509269_);}
	.st87{clip-path:url(#SVGID_00000082335554155873036860000005531796002946936487_);}
	.st88{fill:#FE3C3B;}
	.st89{fill:url(#SVGID_00000054983332188498324270000003014489956020922028_);}
	.st90{fill:url(#SVGID_00000162317702669456368490000010491915044881527728_);}
	.st91{fill:url(#SVGID_00000022545339933181536400000017085498533928816775_);}
	.st92{clip-path:url(#SVGID_00000089564612380372212840000006578798860305677703_);}
	.st93{fill:#1E1D1F;}
	.st94{fill:#D8D6CC;filter:url(#Adobe_OpacityMaskFilter);}
	.st95{mask:url(#mask0_942_1489_00000155837685480791076060000003752964695191964601_);}
	.st96{fill:#D8D6CC;}
	.st97{fill:#C4C4C4;filter:url(#Adobe_OpacityMaskFilter_00000078009446407209704910000004348495755793462695_);}
	.st98{mask:url(#mask1_942_1489_00000155840528367644826360000002088066225464820623_);}
	.st99{fill:#3B98C6;}
	.st100{fill:#FEB000;}
	.st101{fill:#4DBE3B;}
	.st102{fill:#F16D5F;}
	.st103{clip-path:url(#SVGID_00000104695188674746772490000003777143987344780219_);}
	.st104{fill-rule:evenodd;clip-rule:evenodd;fill:url(#SVGID_00000067924244391929930300000008812699574995847357_);}
	.st105{fill:url(#SVGID_00000099621218958186409110000003247657831231099526_);}
	.st106{clip-path:url(#SVGID_00000033357951872224814460000012609100837807707274_);}
	.st107{fill:#1A191E;}
	.st108{fill-rule:evenodd;clip-rule:evenodd;fill:#8D8D8D;}
	.st109{fill:url(#SVGID_00000175314667336676327270000016887045302702961038_);}
	.st110{fill:#FE3C30;}
	.st111{fill:url(#SVGID_00000128476160142281165880000016154527714673013913_);}
	.st112{fill:url(#SVGID_00000146487721196969121240000003515942967566916005_);}
	.st113{fill:url(#SVGID_00000002374560527226897650000014942280584826008469_);}
	.st114{fill:url(#SVGID_00000037672120094955968500000017076678741363631295_);}
	.st115{fill:url(#SVGID_00000088832623694853433280000003372475459286155193_);}
	.st116{fill:none;stroke:#FFFFFF;stroke-width:0.8119;stroke-opacity:0.18;}
	.st117{fill:url(#SVGID_00000171704598826766037000000005265857101519764915_);}
	.st118{fill:#007AFF;stroke:#FFFFFF;stroke-width:1.6238;}
	.st119{fill:url(#SVGID_00000015329966988851155090000008838695519471019427_);}
	.st120{fill:url(#SVGID_00000026874302921977612530000016846913290422739610_);}
	.st121{fill:#003A5E;}
	.st122{clip-path:url(#SVGID_00000109738042648850146060000000400269089606201530_);}
	.st123{fill-rule:evenodd;clip-rule:evenodd;fill:url(#SVGID_00000070840524868682794910000013582151783045295294_);}
	
		.st124{fill-rule:evenodd;clip-rule:evenodd;fill:#FFFFFF;filter:url(#Adobe_OpacityMaskFilter_00000019672292748727409300000014792487537481273784_);}
	.st125{mask:url(#mask2_942_1489_00000106142337686111428320000003101806763790017953_);}
	.st126{fill:#1A1A1B;}
	.st127{fill-rule:evenodd;clip-rule:evenodd;fill:#232323;}
	.st128{fill:url(#SVGID_00000162311764406767789700000015996830201664552625_);}
	.st129{fill:none;stroke:#FFFFFF;stroke-width:0.5996;}
	
		.st130{fill-rule:evenodd;clip-rule:evenodd;fill:url(#SVGID_00000021099086923198571540000004839147743385798042_);fill-opacity:0.2;}
	
		.st131{fill-rule:evenodd;clip-rule:evenodd;fill:#FFFFFF;filter:url(#Adobe_OpacityMaskFilter_00000118371975907379068940000017432229641041126295_);}
	
		.st132{mask:url(#path-350-inside-1_942_1489_00000134252177517796535350000014503953173836182678_);fill:url(#SVGID_00000071548847815873258490000007887499045355157897_);}
	.st133{fill:none;stroke:#FFFFFF;stroke-width:0.7994;stroke-opacity:0.16;}
	.st134{fill:url(#SVGID_00000000215472342206302120000002505342289904936606_);}
	
		.st135{fill-rule:evenodd;clip-rule:evenodd;fill:url(#SVGID_00000018923180683593998300000013742074046027883143_);fill-opacity:0.7;}
	.st136{fill:none;stroke:#F5FAFE;stroke-width:0.5996;}
	.st137{fill:#4685E1;stroke:#95B7E9;stroke-width:0.1999;}
	
		.st138{fill-rule:evenodd;clip-rule:evenodd;fill:url(#SVGID_00000075159656287304685430000000522380119171044228_);fill-opacity:0.7;}
	.st139{fill:#FFFFFF;fill-opacity:0.6;}
	.st140{fill:#5697E8;}
	
		.st141{fill:url(#SVGID_00000122689292633096252050000015944192643833468313_);filter:url(#Adobe_OpacityMaskFilter_00000157275571865042448870000015460018386794436508_);}
	.st142{mask:url(#mask3_942_1489_00000005235214574728202690000008811526416104738209_);}
	.st143{fill:url(#SVGID_00000106830758988705910000000001723457864792353453_);}
	.st144{fill:#676768;}
	.st145{fill:#242425;filter:url(#Adobe_OpacityMaskFilter_00000119100903917018346600000001192010421681136285_);}
	.st146{mask:url(#mask4_942_1489_00000182526648657810851480000012175793248515517588_);}
	.st147{fill:#242425;}
	.st148{fill:#FF3A2F;}
	.st149{fill:url(#SVGID_00000135664560679241880060000010919105699986975376_);}
	.st150{clip-path:url(#SVGID_00000163065822737432468650000003898189560721149084_);}
	.st151{clip-path:url(#SVGID_00000021110828271148245000000000527306560044110978_);}
	.st152{fill:url(#SVGID_00000017474971860144059130000008266144601783374774_);}
	.st153{fill-rule:evenodd;clip-rule:evenodd;fill:url(#SVGID_00000044880735462546675190000011790706676731945601_);}
	.st154{clip-path:url(#SVGID_00000116211214799525647150000013250213595330388101_);}
	.st155{fill:url(#SVGID_00000018919603052023642270000016901970432449436559_);}
	.st156{fill:url(#SVGID_00000147906676683999172300000015542649707240445354_);}
	.st157{fill:#C7C6CA;}
	.st158{fill-rule:evenodd;clip-rule:evenodd;fill:#C8C7CB;}
	.st159{clip-path:url(#SVGID_00000124872184342129870880000012042132922031578532_);}
	.st160{fill:#DE3225;}
	.st161{fill:#F09F3D;}
	.st162{fill:url(#SVGID_00000080923949411726731390000001552292257581761960_);}
	.st163{fill:url(#SVGID_00000047739455076207001970000003048078228289123230_);}
	.st164{fill:#F09A87;}
	.st165{fill:none;}
	.st166{fill:#222337;}
	.st167{fill:#FF6560;filter:url(#Adobe_OpacityMaskFilter_00000005243688358918232600000005258233792376391044_);}
	.st168{fill:url(#SVGID_00000090980373054968065690000010810556372082279299_);}
	.st169{mask:url(#mask5_942_1489_00000076598094363604618470000001222834534056873378_);}
	.st170{fill:#FF6560;}
	.st171{fill:url(#SVGID_00000114075787230704240930000002048492061299954823_);}
	.st172{fill:#D9D9D9;filter:url(#Adobe_OpacityMaskFilter_00000088108855467371040810000009402322171108760463_);}
	.st173{fill:#D9D9D9;}
	.st174{mask:url(#mask6_942_1489_00000018939550503111283550000008982459302839902398_);}
	.st175{fill:#8D9CF7;}
	.st176{fill:url(#SVGID_00000124129837710801771040000018174074678977231505_);}
	.st177{fill-rule:evenodd;clip-rule:evenodd;fill:url(#SVGID_00000163046252524137036770000000232863445014659983_);}
	.st178{fill:url(#SVGID_00000033329256330265006060000006490586537688752775_);}
	.st179{fill-rule:evenodd;clip-rule:evenodd;fill:url(#SVGID_00000062164623463987129970000015392167819201866939_);}
	.st180{fill-rule:evenodd;clip-rule:evenodd;fill:url(#SVGID_00000008846572687828209350000012537258524421429399_);}
	.st181{fill:#F8D544;}
	.st182{fill:#181C33;}
	.st183{stroke:#000000;stroke-width:0.2218;}
	.st184{clip-path:url(#SVGID_00000000945195634353074480000014289480803653805213_);}
	.st185{fill-rule:evenodd;clip-rule:evenodd;}
	.st186{fill-rule:evenodd;clip-rule:evenodd;fill:#FD0053;}
	.st187{clip-path:url(#SVGID_00000176022772497342720320000009723016517468423866_);}
	.st188{fill:url(#SVGID_00000012430648794250408250000011578137459806319539_);}
	.st189{fill:none;stroke:#FFFFFF;stroke-width:3.4642;}
	.st190{fill:url(#SVGID_00000128485273259750009730000000372420497244967318_);}
	.st191{fill:#FEF5EB;}
	.st192{fill:#FF3D4D;stroke:#FF3D4D;stroke-width:0.433;}
	.st193{fill:#1DA1F3;}
	.st194{fill:none;stroke:#FFFFFF;stroke-width:1.4615;}
	.st195{clip-path:url(#SVGID_00000034065901762340378490000012970600602164822958_);}
	.st196{fill:#F54F52;}
	.st197{fill:#6350C9;}
	.st198{fill:#BA31B6;}
	.st199{fill:#FFD854;}
	.st200{fill:#D9D9D9;fill-opacity:1.000000e-02;}
	.st201{fill:none;stroke:#FFFFFF;stroke-width:4.3303;}
	.st202{fill:#1D1F5A;}
	.st203{fill:url(#SVGID_00000127731078849870444070000001934118875011906183_);}
	.st204{fill:url(#SVGID_00000157309725780284325470000006859417566399713194_);}
	.st205{clip-path:url(#SVGID_00000142860099320853682930000007375859560150586795_);}
	.st206{fill:#1ABCFE;}
	.st207{fill:#0ACF83;}
	.st208{fill:#FF7262;}
	.st209{fill:#F24E1E;}
	.st210{fill:#A259FF;}
	.st211{fill:#1E1E1E;}
	.st212{fill:none;stroke:url(#SVGID_00000046340743135192189320000018269223088100089020_);stroke-width:5.1963;}
	.st213{fill:none;stroke:url(#SVGID_00000086674356401633199920000013271868272159861679_);stroke-width:5.1963;}
	.st214{fill:none;stroke:url(#SVGID_00000168097004345235837830000010005024606040009399_);stroke-width:5.1963;}
	.st215{fill:#74F9B5;}
	.st216{fill:#DDFE52;}
	.st217{fill:#EA4289;}
	.st218{fill:url(#SVGID_00000041264322224069089370000013655295799406395276_);}
	.st219{fill:none;stroke:#FFFFFF;stroke-width:1.7321;}
	.st220{fill:none;stroke:#FFFFFF;stroke-width:3.4642;stroke-linecap:round;}
</style>
<path class="st76" d="M607.4,145.4h28c6.6,0,12,5.4,12,12v28c0,6.6-5.4,12-12,12h-28c-6.6,0-12-5.4-12-12v-28  C595.4,150.8,600.8,145.4,607.4,145.4z" />
<circle class="st4" cx="621.4" cy="171.4" r="22.7" />
<path class="st77" d="M619.8,155.4v-3.3h0l-1,0.7v-0.6l1-0.7h0.6v3.9H619.8z M621.4,155.4V155l1.4-1.4c0.5-0.5,0.6-0.7,0.6-1v0  c0-0.4-0.3-0.6-0.7-0.6c-0.5,0-0.8,0.3-0.8,0.7v0h-0.6v0c0-0.7,0.6-1.2,1.4-1.2c0.8,0,1.3,0.5,1.3,1.1v0c0,0.5-0.2,0.8-0.9,1.5  l-0.9,0.9v0h1.9v0.5H621.4z" />
<path class="st77" d="M621.5,191.2c-0.8,0-1.5-0.6-1.5-2v0c0-1.3,0.6-2.1,1.6-2.1c0.7,0,1.2,0.4,1.4,1l0,0h-0.6l0,0  c-0.1-0.3-0.4-0.5-0.7-0.5c-0.7,0-1,0.7-1,1.4c0,0,0,0.1,0,0.1h0c0.2-0.4,0.6-0.6,1.1-0.6c0.8,0,1.3,0.5,1.3,1.3v0  C622.9,190.7,622.3,191.2,621.5,191.2z M620.6,189.9c0,0.5,0.4,0.8,0.8,0.8c0.5,0,0.8-0.4,0.8-0.8v0c0-0.5-0.3-0.8-0.8-0.8  C621,189.1,620.6,189.4,620.6,189.9L620.6,189.9z" />
<path class="st77" d="M630.5,157.8v-3.3h0l-1,0.7v-0.6l1-0.7h0.6v3.9H630.5z" />
<path class="st77" d="M611.4,188.8l1.8-3.4v0h-2.1v-0.5h2.7v0.5l-1.7,3.4H611.4z" />
<path class="st77" d="M635.7,164.3v-0.4l1.4-1.4c0.5-0.5,0.6-0.7,0.6-1v0c0-0.4-0.3-0.6-0.7-0.6c-0.5,0-0.8,0.3-0.8,0.7v0h-0.6v0  c0-0.7,0.6-1.2,1.4-1.2c0.8,0,1.3,0.5,1.3,1.1v0c0,0.5-0.2,0.8-0.9,1.5l-0.9,0.9v0h1.9v0.5H635.7z" />
<path class="st77" d="M605.9,182.4c-0.9,0-1.5-0.5-1.5-1.1v0c0-0.5,0.4-0.9,0.9-1v0c-0.4-0.1-0.7-0.5-0.7-0.9v0c0-0.6,0.6-1,1.3-1  c0.8,0,1.3,0.4,1.3,1v0c0,0.4-0.3,0.7-0.7,0.9v0c0.5,0.1,0.9,0.5,0.9,1v0C607.4,181.9,606.8,182.4,605.9,182.4z M605.9,180  c0.4,0,0.7-0.3,0.7-0.6v0c0-0.4-0.3-0.6-0.7-0.6c-0.4,0-0.7,0.3-0.7,0.6v0C605.1,179.8,605.4,180,605.9,180z M605.9,181.9  c0.5,0,0.9-0.3,0.9-0.7v0c0-0.4-0.4-0.7-0.9-0.7c-0.5,0-0.9,0.3-0.9,0.7v0C605,181.6,605.4,181.9,605.9,181.9z" />
<path class="st77" d="M639.4,173.4c-0.8,0-1.4-0.5-1.4-1.1l0,0h0.6l0,0c0,0.3,0.4,0.6,0.9,0.6c0.5,0,0.8-0.3,0.8-0.7v0  c0-0.4-0.3-0.7-0.8-0.7h-0.5V171h0.5c0.5,0,0.8-0.3,0.8-0.6v0c0-0.4-0.3-0.6-0.7-0.6c-0.4,0-0.7,0.2-0.8,0.6l0,0H638l0,0  c0.1-0.7,0.6-1.1,1.4-1.1c0.8,0,1.3,0.4,1.3,1v0c0,0.5-0.3,0.8-0.8,0.9v0c0.6,0.1,1,0.4,1,1v0C640.8,172.9,640.2,173.4,639.4,173.4z  " />
<path class="st77" d="M603.4,169.4c0.8,0,1.5,0.6,1.5,2v0c0,1.3-0.6,2.1-1.6,2.1c-0.7,0-1.2-0.4-1.4-1l0,0h0.6l0,0  c0.1,0.3,0.4,0.5,0.7,0.5c0.7,0,1-0.7,1-1.4c0,0,0-0.1,0-0.1h0c-0.2,0.4-0.6,0.6-1.1,0.6c-0.8,0-1.3-0.5-1.3-1.3v0  C602,169.9,602.6,169.4,603.4,169.4z M603.4,171.5c0.5,0,0.8-0.3,0.8-0.8v0c0-0.5-0.4-0.8-0.8-0.8c-0.5,0-0.8,0.4-0.8,0.8v0  C602.6,171.2,602.9,171.5,603.4,171.5z" />
<path class="st77" d="M637.2,182.3v-0.8h-2V181l1.7-2.6h0.9v2.6h0.5v0.5h-0.5v0.8H637.2z M635.8,181h1.4v-2.2h0L635.8,181L635.8,181  z" />
<path class="st77" d="M604.3,164.3V161h0l-1,0.7v-0.6l1-0.7h0.6v3.9H604.3z M607.3,164.4c-0.9,0-1.5-0.8-1.5-2v0c0-1.3,0.6-2,1.5-2  c0.9,0,1.5,0.8,1.5,2v0C608.8,163.6,608.3,164.4,607.3,164.4z M607.3,163.9c0.6,0,0.9-0.6,0.9-1.5v0c0-0.9-0.3-1.5-0.9-1.5  c-0.6,0-0.9,0.6-0.9,1.5v0C606.4,163.3,606.7,163.9,607.3,163.9z" />
<path class="st77" d="M630.5,188.8c-0.8,0-1.3-0.5-1.4-1.1l0,0h0.6l0,0c0.1,0.4,0.4,0.6,0.8,0.6c0.5,0,0.8-0.3,0.8-0.8v0  c0-0.5-0.3-0.8-0.8-0.8c-0.2,0-0.5,0.1-0.6,0.2c-0.1,0.1-0.1,0.1-0.2,0.2h-0.5l0.2-2.3h2.4v0.5h-1.9l-0.1,1.2h0  c0.2-0.3,0.5-0.4,0.9-0.4c0.8,0,1.3,0.5,1.3,1.3v0C632,188.3,631.4,188.8,630.5,188.8z" />
<path class="st77" d="M611,157.8v-3.3h0l-1,0.7v-0.6l1-0.7h0.6v3.9H611z M613.6,157.8v-3.3h0l-1,0.7v-0.6l1-0.7h0.6v3.9H613.6z" />
<circle class="st78" cx="621.4" cy="171.4" r="0.8" />
<path class="st77" d="M636.3,158.1L636.3,158.1c0.3,0.3,0.3,0.8-0.1,1.1L625,169.3c-0.3,0.3-0.8,0.3-1.1-0.1l0,0  c-0.3-0.3-0.3-0.8,0.1-1.1l11.3-10.2C635.5,157.7,636,157.7,636.3,158.1z" />
<path class="st77" d="M634.2,159.9L634.2,159.9c0.1,0.2,0.1,0.4,0,0.6l-11.6,10.4c-0.2,0.1-0.4,0.1-0.6,0l0,0  c-0.1-0.2-0.1-0.4,0-0.6l11.6-10.4C633.8,159.7,634.1,159.8,634.2,159.9z" />
<path class="st77" d="M611.4,165.6L611.4,165.6c-0.2,0.4-0.1,0.9,0.3,1.1l7,4.1c0.4,0.2,0.9,0.1,1.1-0.3l0,0  c0.2-0.4,0.1-0.9-0.3-1.1l-7-4.1C612.1,165.1,611.6,165.2,611.4,165.6z" />
<path class="st77" d="M612.8,166.4L612.8,166.4c-0.1,0.2,0,0.4,0.1,0.5l7.3,4.2c0.2,0.1,0.4,0,0.5-0.1l0,0c0.1-0.2,0-0.4-0.1-0.5  l-7.3-4.2C613.2,166.2,612.9,166.2,612.8,166.4z" />
<path class="st79" d="M623.2,168.3c0.2,0.1,0.3,0.4,0.1,0.5l-1.2,2.1c0.1,0.1,0.1,0.3,0.1,0.4c0,0.4-0.4,0.8-0.8,0.8l0,0l-9.8,17.1  c-0.1,0.2-0.4,0.3-0.5,0.1c-0.2-0.1-0.3-0.4-0.1-0.5l9.8-17.1c-0.1-0.1-0.1-0.3-0.1-0.4c0-0.4,0.4-0.8,0.8-0.8l1.2-2.1  C622.7,168.3,623,168.2,623.2,168.3z M621.4,171.8c0.2,0,0.4-0.2,0.4-0.4c0-0.2-0.2-0.4-0.4-0.4c-0.2,0-0.4,0.2-0.4,0.4  C621,171.6,621.2,171.8,621.4,171.8z" />
</svg>
