<?xml version='1.0' encoding='utf-8'?>
<svg xmlns="http://www.w3.org/2000/svg" version="1.1" id="svg2" height="1040.824" width="990.593" viewBox="-20.016 -20.016 990.593 1040.824">
  <g transform="translate(0,-48.372073)" id="layer1">
    <path id="path3868" d="M 633.54382,69.319249 C 494.85183,154.04039 443.13335,320.1554 485.49033,474.06125 c 6.10069,22.16711 15.44797,42.66591 24.11561,65.44857 12.87553,31.45301 25.47177,59.69456 45.28442,86.43922 53.56586,68.17054 132.91132,120.15926 221.15566,138.4239 59.22682,12.27637 116.5802,7.40856 174.51567,-10.48166 C 910.40017,850.46351 840.11682,923.65389 755.19405,976.83669 642.60801,1042.7719 508.87965,1062.9005 404.24477,1040.1876 268.72968,1011.4758 169.48285,941.41046 103.29995,855.08303 22.254929,749.36973 -10.707077,621.8207 3.0240463,510.86122 7.1900213,416.48872 42.735867,321.64446 103.43172,242.84054 164.48621,159.00928 260.32786,94.71412 367.75334,65.396623 452.92332,42.15288 546.09506,42.004538 633.54382,69.319249 Z" style="fill:#f0ca00;fill-opacity:1;stroke:none" />
    </g>
</svg>
