<?xml version='1.0' encoding='utf-8'?>
<svg xmlns="http://www.w3.org/2000/svg" version="1.1" id="Layer_1" x="0px" y="0px" width="557.358" height="429.742" viewBox="-10.718 -10.718 557.358 429.742" enable-background="new 0 0 1000 408.305" xml:space="preserve">
<g>
	<path d="M482.828,185.803c4.315-2.365,37.682-16.167,37.682-59.949c0-61.417-54.642-76.639-97.631-76.639l-173.442-0.008   l28.729,89.051h206.823L317.421,259.114l31.34,95.737l80.119,0.077c31.831,0,107.041-16.646,107.041-92.917   C535.921,202.068,487.503,187.406,482.828,185.803" />
	<polyline points="133.091,252.214 82,408.305 214.66,311.464 347.33,408.305 296.233,252.214 429.295,156.245 265.071,156.245    214.66,0 164.253,156.245 0,156.245 133.091,252.214  " />
</g>
</svg>
